<svg xmlns="http://www.w3.org/2000/svg" width="1000" height="1000" viewBox="0 0 1000 1000">
    <title>uxd-assignment</title>
    <path transform-origin="center" transform="scale(1, -1)" d="M789.6875 833.75L615.95625 833.75C598.5 881.9625 552.78125 916.875 498.75 916.875C444.71875 916.875 399 881.9625 381.54375 833.75L207.8125 833.75C162.09375 833.75 124.6875 796.34375 124.6875 750.625L124.6875 168.7500000000001C124.6875 123.0312500000001 162.09375 85.625 207.8125 85.625L789.6875 85.625C835.4062499999999 85.625 872.8125 123.0312500000001 872.8125 168.7500000000001L872.8125 750.625C872.8125 796.34375 835.4062499999999 833.75 789.6875 833.75L789.6875 833.75zM498.75 833.75C521.609375 833.75 540.3124999999999 815.046875 540.3124999999999 792.1875C540.3124999999999 769.328125 521.609375 750.625 498.75 750.625C475.8906249999999 750.625 457.1875 769.328125 457.1875 792.1875C457.1875 815.046875 475.8906249999999 833.75 498.75 833.75L498.75 833.75zM581.875 251.8750000000001L290.9375 251.8750000000001L290.9375 335L581.875 335L581.875 251.8750000000001L581.875 251.8750000000001zM706.5624999999999 418.125L290.9375 418.125L290.9375 501.25L706.5624999999999 501.25L706.5624999999999 418.125L706.5624999999999 418.125zM706.5624999999999 584.375L290.9375 584.375L290.9375 667.5L706.5624999999999 667.5L706.5624999999999 584.375L706.5624999999999 584.375z" />
</svg>