<svg xmlns="http://www.w3.org/2000/svg" width="1000" height="1000" viewBox="0 0 1000 1000">
    <title>uxd-assigned-1-3</title>
    <path transform-origin="center" transform="scale(1, -1)" d="M124.6875 501.25C156.83609375 501.25 182.875 527.2889083333334 182.875 559.4375C182.875 591.58609375 156.83609375 617.625 124.6875 617.625C92.53890625 617.625 66.5 591.58609375 66.5 559.4375C66.5 527.2889083333334 92.53890625 501.25 124.6875 501.25L124.6875 501.25zM124.6875 472.15625C163.52765625 472.15625 241.0625 452.6634375 241.0625 413.96875L241.0625 413.96875L241.0625 384.875L8.3125 384.875L8.3125 413.96875C8.3125 452.6634375 85.84734375 472.15625 124.6875 472.15625zM374.0625 486.703125C412.90265625 486.703125 490.4375 467.2103125 490.4375 428.5156250000001L490.4375 428.5156250000001L490.4375 384.875L257.6875 384.875L257.6875 428.5156250000001C257.6875 467.2103125 335.22234375 486.703125 374.0625 486.703125zM623.4375 486.703125C662.2776541666667 486.703125 739.8125 467.2103125 739.8125 428.5156250000001L739.8125 428.5156250000001L739.8125 384.875L507.0624999999999 384.875L507.0624999999999 428.5156250000001C507.0624999999999 467.2103125 584.5973416666667 486.703125 623.4375 486.703125zM374.0625 459.0640625C330.85828125 459.0640625 285.3265625 437.8256250000001 285.3265625 428.5156250000001L285.3265625 428.5156250000001L285.3265625 412.5140625L462.7984374999999 412.5140625L462.7984374999999 428.5156250000001C462.7984374999999 437.8256250000001 417.2667166666667 459.0640625 374.0625 459.0640625zM623.4375 459.0640625C580.2332791666666 459.0640625 534.7015625 437.8256250000001 534.7015625 428.5156250000001L534.7015625 428.5156250000001L534.7015625 412.5140625L712.1734375 412.5140625L712.1734375 428.5156250000001C712.1734375 437.8256250000001 666.6417166666666 459.0640625 623.4375 459.0640625zM374.0625 617.625C406.21109375 617.625 432.25 591.58609375 432.25 559.4375C432.25 527.2889083333334 406.21109375 501.25 374.0625 501.25C341.91390625 501.25 315.875 527.2889083333334 315.875 559.4375C315.875 591.58609375 341.91390625 617.625 374.0625 617.625zM623.4375 617.625C655.5860916666666 617.625 681.625 591.58609375 681.625 559.4375C681.625 527.2889083333334 655.5860916666666 501.25 623.4375 501.25C591.2889041666666 501.25 565.25 527.2889083333334 565.25 559.4375C565.25 591.58609375 591.2889041666666 617.625 623.4375 617.625zM374.0625 589.9859375000001C357.188125 589.9859375000001 343.5140625 576.3118750000001 343.5140625 559.4375C343.5140625 542.5631250000001 357.188125 528.8890625 374.0625 528.8890625C390.936875 528.8890625 404.6109375 542.5631250000001 404.6109375 559.4375C404.6109375 576.3118750000001 390.936875 589.9859375000001 374.0625 589.9859375000001zM623.4375 589.9859375000001C606.563125 589.9859375000001 592.8890624999999 576.3118750000001 592.8890624999999 559.4375C592.8890624999999 542.5631250000001 606.563125 528.8890625 623.4375 528.8890625C640.311875 528.8890625 653.9859375 542.5631250000001 653.9859375 559.4375C653.9859375 576.3118750000001 640.311875 589.9859375000001 623.4375 589.9859375000001z" />
</svg>