<svg xmlns="http://www.w3.org/2000/svg" width="1000" height="1000" viewBox="0 0 1000 1000">
    <title>uxd-add-circle</title>
    <path transform-origin="center" transform="scale(1, -1)" d="M498.75 916.875C269.325 916.875 83.125 730.675 83.125 501.25C83.125 271.8250000000001 269.325 85.625 498.75 85.625C728.175 85.625 914.375 271.8250000000001 914.375 501.25C914.375 730.675 728.175 916.875 498.75 916.875L498.75 916.875zM706.5624999999999 459.6875000000001L540.3124999999999 459.6875000000001L540.3124999999999 293.4375000000001L457.1875 293.4375000000001L457.1875 459.6875000000001L290.9375 459.6875000000001L290.9375 542.8125L457.1875 542.8125L457.1875 709.0625L540.3124999999999 709.0625L540.3124999999999 542.8125L706.5624999999999 542.8125L706.5624999999999 459.6875000000001L706.5624999999999 459.6875000000001z" />
</svg>