<svg xmlns="http://www.w3.org/2000/svg" width="1000" height="1000" viewBox="0 0 1000 1000">
    <title>uxd-aircraft-block</title>
    <path transform-origin="center" transform="scale(1, -1)" d="M140.2734008333334 203.4904416666667L888.6834916666667 203.4904416666667L888.6834916666667 127.1875L140.2734008333334 127.1875L140.2734008333334 203.4904416666667zM422.1718833333334 646.20879L613.5877583333333 340.2641708333333L829.650775 340.1844C862.2605666666666 339.9484 888.0171166666665 314.2960291666667 887.65445 282.6759083333334C886.9027041666666 250.9571583333334 860.1213375 225.5098916666667 827.6070666666667 225.3765333333334L611.5440541666666 225.4563041666668L434.5745791666667 225.4006166666667L218.4160404166667 225.8497500000001L153.2919791666667 225.9523916666668L103.90625 416.9128375L162.9279158333333 416.8082750000001L220.5552695833334 340.2882583333334L422.7925541666667 340.1795125L343.6989704166666 646.0117145833334L422.1718833333334 646.20879zM720.24145 570.8492958333334C746.4252416666667 570.8603333333333 766.8242458333332 569.9802333333333 766.8242458333332 536.8677541666666L766.8242458333332 536.8677541666666L766.8242458333332 448.1841708333334C760.0586083333334 448.1841708333334 669.6244875 445.2778666666667 663.7112833333333 448.1841708333334L663.7112833333333 448.1841708333334L663.7112833333333 536.8677541666666C663.7112833333333 572.0497666666668 686.7398458333333 570.8444375 715.2677666666666 570.8444375zM636.0461291666667 525.0775375000001L636.0461291666667 490.70655L532.9331666666666 490.70655L532.9331666666666 525.0775375000001L636.0461291666667 525.0775375000001zM893.5937499999999 525.0775375000001L893.5937499999999 490.70655L790.4807874999999 490.70655L790.4807874999999 525.0775375000001L893.5937499999999 525.0775375000001zM614.1624541666666 634.2889891666666L663.7112833333333 584.7401616666667L639.407325 560.4362041666667L589.8584958333333 609.9850308333334L614.1624541666666 634.2889891666666zM811.6400708333332 634.2889891666666L835.9440291666667 609.9850308333334L786.3951999999999 560.4362041666667L762.0912416666666 584.7401616666667L811.6400708333332 634.2889891666666zM732.4532583333332 697.3019520833334L732.4532583333332 594.1889887500001L698.0822708333334 594.1889887500001L698.0822708333334 697.3019520833334L732.4532583333332 697.3019520833334z" />
</svg>