<svg xmlns="http://www.w3.org/2000/svg" width="1000" height="1000" viewBox="0 0 1000 1000">
    <title>uxd-add-to-shipment</title>
    <path transform-origin="center" transform="scale(1, -1)" d="M161.25 755.625L161.25 173.7500000000001L743.125 173.7500000000001L743.125 90.6250000000001L161.25 90.6250000000001C115.53125 90.6250000000001 78.125 128.03125 78.125 173.7500000000001L78.125 173.7500000000001L78.125 755.625L161.25 755.625zM826.2499999999999 921.875C871.96875 921.875 909.3749999999998 884.46875 909.3749999999998 838.75L909.3749999999998 838.75L909.3749999999998 340C909.3749999999998 294.2812500000001 871.96875 256.875 826.2499999999999 256.875L826.2499999999999 256.875L327.5 256.875C281.78125 256.875 244.375 294.2812500000001 244.375 340L244.375 340L244.375 838.75C244.375 884.46875 281.78125 921.875 327.5 921.875L327.5 921.875zM359.2809158333333 701.4004275L359.2809158333333 467.0399166666667L549.4631375 388.7859333333334L549.5329125 456.6328166666667L549.5329125 623.1207958333334L490.7667625 647.3280829166667L418.1179125 677.19215375L415.9377687500001 678.0897429166666L359.2809158333333 701.4004275zM781.2902583333333 701.4004275L591.0371875 623.1198091666668L591.0371875 388.8293291666668L646.2889166666666 411.491975L781.2902583333333 467.0399166666667L781.2902583333333 701.4004275zM571.2668166666666 803.2057908333334L391.4261558333334 730.8058404166667L570.2855874999999 656.3976779166667L751.1074749999999 730.8058404166667L571.2668166666666 803.2057908333334z" />
</svg>