<svg xmlns="http://www.w3.org/2000/svg" width="1000" height="1000" viewBox="0 0 1000 1000">
    <title>uxd-airline-seat-recline-normal</title>
    <path transform-origin="center" transform="scale(1, -1)" d="M315.459375 775.146875C283.040625 807.565625 283.040625 860.35 315.459375 892.76875C347.878125 925.1875 400.6625 925.1875 433.08125 892.76875C465.5 860.35 465.5 807.565625 433.08125 775.146875C400.246875 742.3125 347.878125 742.3125 315.459375 775.146875L315.459375 775.146875zM249.375 335L249.375 709.0625L166.25 709.0625L166.25 335C166.25 220.2875 259.35 127.1875 374.0625 127.1875L623.4375 127.1875L623.4375 210.3125L374.0625 210.3125C305.06875 210.3125 249.375 266.0062500000002 249.375 335L249.375 335zM831.2499999999999 165.8406250000001L620.5281249999999 376.5625L477.9687499999999 376.5625L477.9687499999999 529.5125C536.1562499999999 481.715625 627.59375 439.7375 706.5624999999999 439.7375L706.5624999999999 529.5125C637.56875 528.6812500000001 556.5218749999999 565.671875 512.4656249999999 614.3L454.278125 678.721875C446.38125 687.45 436.40625 694.515625 425.6 699.503125C413.546875 705.321875 399.83125 709.0625 385.7 709.0625L384.453125 709.0625C332.915625 709.0625 290.9375 667.084375 290.9375 615.546875L290.9375 376.5625C290.9375 307.56875 346.63125 251.8750000000001 415.625 251.8750000000001L626.346875 251.8750000000001L771.815625 106.4062500000001L831.2499999999999 165.8406250000001L831.2499999999999 165.8406250000001z" />
</svg>