<svg xmlns="http://www.w3.org/2000/svg" width="1000" height="1000" viewBox="0 0 1000 1000">
    <title>uxd-archive</title>
    <path transform-origin="center" transform="scale(1, -1)" d="M853.6937499999999 782.628125L795.921875 852.453125C784.6999999999999 866.584375 767.659375 875.3125 748.1249999999999 875.3125L249.375 875.3125C229.840625 875.3125 212.8 866.584375 201.1625 852.453125L143.80625 782.628125C131.753125 768.496875 124.6875 749.79375 124.6875 729.84375L124.6875 210.3125C124.6875 164.5937500000001 162.09375 127.1875 207.8125 127.1875L789.6875 127.1875C835.4062499999999 127.1875 872.8125 164.5937500000001 872.8125 210.3125L872.8125 729.84375C872.8125 749.79375 865.7468749999999 768.496875 853.6937499999999 782.628125L853.6937499999999 782.628125zM498.75 272.65625L270.15625 501.25L415.625 501.25L415.625 584.375L581.875 584.375L581.875 501.25L727.34375 501.25L498.75 272.65625L498.75 272.65625zM212.8 792.1875L246.465625 833.75L745.2156249999999 833.75L784.2843750000001 792.1875L212.8 792.1875L212.8 792.1875z" />
</svg>