<svg xmlns="http://www.w3.org/2000/svg" width="1000" height="1000" viewBox="0 0 1000 1000">
    <title>uxd-assigned-3-3</title>
    <path transform-origin="center" transform="scale(1, -1)" d="M124.6875 501.25C156.83609375 501.25 182.875 527.2889083333334 182.875 559.4375C182.875 591.58609375 156.83609375 617.625 124.6875 617.625C92.53890625 617.625 66.5 591.58609375 66.5 559.4375C66.5 527.2889083333334 92.53890625 501.25 124.6875 501.25L124.6875 501.25zM124.6875 472.15625C163.52765625 472.15625 241.0625 452.6634375 241.0625 413.96875L241.0625 413.96875L241.0625 384.875L8.3125 384.875L8.3125 413.96875C8.3125 452.6634375 85.84734375 472.15625 124.6875 472.15625zM374.0625 472.15625C412.90265625 472.15625 490.4375 452.6634375 490.4375 413.96875L490.4375 413.96875L490.4375 384.875L257.6875 384.875L257.6875 413.96875C257.6875 452.6634375 335.22234375 472.15625 374.0625 472.15625zM623.4375 472.15625C662.2776541666667 472.15625 739.8125 452.6634375 739.8125 413.96875L739.8125 413.96875L739.8125 384.875L507.0624999999999 384.875L507.0624999999999 413.96875C507.0624999999999 452.6634375 584.5973416666667 472.15625 623.4375 472.15625zM374.0625 617.625C406.21109375 617.625 432.25 591.58609375 432.25 559.4375C432.25 527.2889083333334 406.21109375 501.25 374.0625 501.25C341.91390625 501.25 315.875 527.2889083333334 315.875 559.4375C315.875 591.58609375 341.91390625 617.625 374.0625 617.625zM623.4375 617.625C655.5860916666666 617.625 681.625 591.58609375 681.625 559.4375C681.625 527.2889083333334 655.5860916666666 501.25 623.4375 501.25C591.2889041666666 501.25 565.25 527.2889083333334 565.25 559.4375C565.25 591.58609375 591.2889041666666 617.625 623.4375 617.625z" />
</svg>