<svg xmlns="http://www.w3.org/2000/svg" width="1000" height="1000" viewBox="0 0 1000 1000">
    <title>uxd-airline-seat-recline-extra</title>
    <path transform-origin="center" transform="scale(1, -1)" d="M222.359375 765.5875000000001C184.953125 792.1875 175.809375 843.725 201.99375 881.546875C228.178125 918.953125 280.13125 928.096875 317.953125 901.9125C355.359375 875.3125 364.503125 823.775 338.31875 785.953125C311.71875 748.546875 260.18125 739.403125 222.359375 765.5875000000001L222.359375 765.5875000000001zM665 210.3125L371.153125 210.3125C309.640625 210.3125 257.271875 255.2000000000001 248.128125 315.88125L166.25 709.0625L83.125 709.0625L165.834375 303.4125C181.628125 202 268.909375 127.1875 371.56875 127.1875L665 127.1875L665 210.3125L665 210.3125zM674.5593749999999 376.5625L471.7343749999999 376.5625L428.925 546.96875C494.59375 509.978125 565.25 482.9625000000001 642.971875 496.2625L642.971875 584.790625C575.225 571.90625 499.9968749999999 596.0125 448.04375 636.7437500000001L379.88125 689.528125C370.321875 697.0093750000001 359.515625 701.996875 348.29375 705.321875C334.99375 709.0625 320.8625 710.309375 307.146875 707.815625L306.315625 707.815625C255.19375 698.671875 221.1125 650.04375 229.840625 599.3375000000001L285.95 353.2875C297.5875 294.26875 348.709375 251.8750000000001 408.559375 251.8750000000001L693.2625 251.8750000000001L852.03125 127.1875L914.375 189.53125L674.5593749999999 376.5625L674.5593749999999 376.5625z" />
</svg>