<svg xmlns="http://www.w3.org/2000/svg" width="1000" height="1000" viewBox="0 0 1000 1000">
    <title>uxd-assigned-0-2-alt</title>
    <path transform-origin="center" transform="scale(1, -1)" d="M249.375 928.096875C283.12375 928.096875 310.471875 900.74875 310.471875 867C310.471875 833.25125 283.12375 805.903125 249.375 805.903125C215.62625 805.903125 188.278125 833.25125 188.278125 867C188.278125 900.74875 215.62625 928.096875 249.375 928.096875L249.375 928.096875zM249.375 666.253125C335.7834375 666.253125 426.846875 623.77625 426.846875 605.15625L426.846875 573.153125L71.903125 573.153125L71.903125 605.15625C71.903125 623.77625 162.9665625 666.253125 249.375 666.253125L249.375 666.253125zM249.375 983.375C185.0778125 983.375 133 931.2971875 133 867C133 802.7028125 185.0778125 750.625 249.375 750.625C313.6721875 750.625 365.75 802.7028125 365.75 867C365.75 931.2971875 313.6721875 983.375 249.375 983.375L249.375 983.375zM249.375 721.53125C327.0553125 721.53125 482.1249999999999 682.545625 482.1249999999999 605.15625L482.1249999999999 605.15625L482.1249999999999 517.875L16.625 517.875L16.625 605.15625C16.625 682.545625 171.6946875 721.53125 249.375 721.53125zM748.1249999999999 721.53125C825.8053124999999 721.53125 980.875 682.545625 980.875 605.15625L980.875 605.15625L980.875 517.875L515.375 517.875L515.375 605.15625C515.375 682.545625 670.4446875 721.53125 748.1249999999999 721.53125zM748.1249999999999 666.253125C661.7165625 666.253125 570.6531249999999 623.77625 570.6531249999999 605.15625L570.6531249999999 605.15625L570.6531249999999 573.153125L925.5968749999998 573.153125L925.5968749999998 605.15625C925.5968749999998 623.77625 834.5334375 666.253125 748.1249999999999 666.253125zM748.1249999999999 983.375C812.4221875 983.375 864.5 931.2971875 864.5 867C864.5 802.7028125 812.4221875 750.625 748.1249999999999 750.625C683.8278124999999 750.625 631.75 802.7028125 631.75 867C631.75 931.2971875 683.8278124999999 983.375 748.1249999999999 983.375zM748.1249999999999 928.096875C714.3762499999999 928.096875 687.0281249999999 900.74875 687.0281249999999 867C687.0281249999999 833.25125 714.3762499999999 805.903125 748.1249999999999 805.903125C781.87375 805.903125 809.221875 833.25125 809.221875 867C809.221875 900.74875 781.87375 928.096875 748.1249999999999 928.096875z" />
</svg>