<svg xmlns="http://www.w3.org/2000/svg" width="1000" height="1000" viewBox="0 0 1000 1000">
    <title>uxd-add-to-photos</title>
    <path transform-origin="center" transform="scale(1, -1)" d="M166.25 750.625L83.125 750.625L83.125 168.7500000000001C83.125 123.0312500000001 120.53125 85.625 166.25 85.625L748.1249999999999 85.625L748.1249999999999 168.7500000000001L166.25 168.7500000000001L166.25 750.625L166.25 750.625zM831.2499999999999 916.875L332.5 916.875C286.78125 916.875 249.375 879.46875 249.375 833.75L249.375 335C249.375 289.28125 286.78125 251.8750000000001 332.5 251.8750000000001L831.2499999999999 251.8750000000001C876.9687499999999 251.8750000000001 914.375 289.28125 914.375 335L914.375 833.75C914.375 879.46875 876.9687499999999 916.875 831.2499999999999 916.875L831.2499999999999 916.875zM789.6875 542.8125L623.4375 542.8125L623.4375 376.5625L540.3124999999999 376.5625L540.3124999999999 542.8125L374.0625 542.8125L374.0625 625.9375L540.3124999999999 625.9375L540.3124999999999 792.1875L623.4375 792.1875L623.4375 625.9375L789.6875 625.9375L789.6875 542.8125L789.6875 542.8125z" />
</svg>