<svg xmlns="http://www.w3.org/2000/svg" width="1000" height="1000" viewBox="0 0 1000 1000">
    <title>uxd-assigned-3-4-alt</title>
    <path transform-origin="center" transform="scale(1, -1)" d="M249.375 750.625C313.6721875 750.625 365.75 802.7028125 365.75 867C365.75 931.2971875 313.6721875 983.375 249.375 983.375C185.0778125 983.375 133 931.2971875 133 867C133 802.7028125 185.0778125 750.625 249.375 750.625L249.375 750.625zM249.375 193.6875C327.0553125 193.6875 482.1249999999999 154.7018750000001 482.1249999999999 77.3125L482.1249999999999 77.3125L482.1249999999999 19.125L16.625 19.125L16.625 77.3125C16.625 154.7018750000001 171.6946875 193.6875 249.375 193.6875zM748.1249999999999 222.78125C825.8053124999999 222.78125 980.875 183.795625 980.875 106.4062500000001L980.875 106.4062500000001L980.875 19.125L515.375 19.125L515.375 106.4062500000001C515.375 183.795625 670.4446875 222.78125 748.1249999999999 222.78125zM748.1249999999999 167.503125C661.7165625 167.503125 570.6531249999999 125.0262500000001 570.6531249999999 106.4062500000001L570.6531249999999 106.4062500000001L570.6531249999999 74.4031250000002L925.5968749999998 74.4031250000002L925.5968749999998 106.4062500000001C925.5968749999998 125.0262500000001 834.5334375 167.503125 748.1249999999999 167.503125zM249.375 484.625C313.6721875 484.625 365.75 432.5471875000001 365.75 368.25C365.75 303.9528125 313.6721875 251.8750000000001 249.375 251.8750000000001C185.0778125 251.8750000000001 133 303.9528125 133 368.25C133 432.5471875000001 185.0778125 484.625 249.375 484.625zM748.1249999999999 484.625C812.4221875 484.625 864.5 432.5471875000001 864.5 368.25C864.5 303.9528125 812.4221875 251.8750000000001 748.1249999999999 251.8750000000001C683.8278124999999 251.8750000000001 631.75 303.9528125 631.75 368.25C631.75 432.5471875000001 683.8278124999999 484.625 748.1249999999999 484.625zM748.1249999999999 429.3468750000001C714.3762499999999 429.3468750000001 687.0281249999999 401.9987500000001 687.0281249999999 368.25C687.0281249999999 334.5012500000001 714.3762499999999 307.1531250000001 748.1249999999999 307.1531250000001C781.87375 307.1531250000001 809.221875 334.5012500000001 809.221875 368.25C809.221875 401.9987500000001 781.87375 429.3468750000001 748.1249999999999 429.3468750000001zM249.375 692.4375C327.0553125 692.4375 482.1249999999999 653.451875 482.1249999999999 576.0625L482.1249999999999 576.0625L482.1249999999999 517.875L16.625 517.875L16.625 576.0625C16.625 653.451875 171.6946875 692.4375 249.375 692.4375zM748.1249999999999 692.4375C825.8053124999999 692.4375 980.875 653.451875 980.875 576.0625L980.875 576.0625L980.875 517.875L515.375 517.875L515.375 576.0625C515.375 653.451875 670.4446875 692.4375 748.1249999999999 692.4375zM748.1249999999999 983.375C812.4221875 983.375 864.5 931.2971875 864.5 867C864.5 802.7028125 812.4221875 750.625 748.1249999999999 750.625C683.8278124999999 750.625 631.75 802.7028125 631.75 867C631.75 931.2971875 683.8278124999999 983.375 748.1249999999999 983.375z" />
</svg>