<svg xmlns="http://www.w3.org/2000/svg" width="1000" height="1000" viewBox="0 0 1000 1000">
    <title>uxd-aircraft-scheduled</title>
    <path transform-origin="center" transform="scale(1, -1)" d="M888.6834916666667 203.4904416666667L888.6834916666667 127.1875L140.2734008333334 127.1875L140.2734008333334 203.4904416666667L888.6834916666667 203.4904416666667zM422.1718833333334 646.20879L613.5877583333333 340.2641708333333L829.6507708333332 340.1844C862.2605666666666 339.9484 888.0171124999999 314.2960333333333 887.6655666666666 282.6759083333334C886.9027041666666 250.9571583333334 860.1213375 225.5098958333334 827.6070666666667 225.3765333333334L434.5745791666667 225.4006166666667L153.2919791666667 225.9523916666668L103.90625 416.9128375L162.9279154166667 416.8082750000001L220.55527 340.2882583333334L422.7925541666667 340.1795083333334L343.69897 646.0117141666667L422.1718833333334 646.20879zM749.87 640C821.7599999999999 640 880 581.76 880 510.0000000000001C880 438.2400000000001 821.7599999999999 380 749.87 380C678.11 380 620 438.2400000000001 620 510.0000000000001C620 581.76 678.11 640 749.87 640zM750 614C692.54 614 646 567.46 646 510.0000000000001C646 452.5400000000001 692.54 406 750 406C807.4599999999999 406 853.9999999999999 452.5400000000001 853.9999999999999 510.0000000000001C853.9999999999999 567.46 807.4599999999999 614 750 614zM756.4999999999999 575L756.4999999999999 506.7500000000001L814.9999999999999 472.0400000000001L805.25 456.0500000000001L736.9999999999999 497.0000000000001L736.9999999999999 575L756.4999999999999 575z" />
</svg>