<svg xmlns="http://www.w3.org/2000/svg" width="1000" height="1000" viewBox="0 0 1000 1000">
    <title>uxd-admin-represent-user</title>
    <path transform-origin="center" transform="scale(1, -1)" d="M500 458.3333333333334C611.25 458.3333333333334 833.3333333333333 402.5 833.3333333333333 291.6666666666668L833.3333333333333 166.6666666666668L166.6666666666667 166.6666666666668L166.6666666666667 291.6666666666668C166.6666666666667 402.5 388.75 458.3333333333334 500 458.3333333333334zM500 375L500.0915541666666 248.6063625000001L750 250L750 292.96875C750 317.9687500000001 621.7213125 375 500 375zM500 750L500 583.3333333333334C546.0317458333333 583.3333333333334 583.3333333333333 620.6349208333334 583.3333333333333 666.6666666666667C583.3333333333333 712.6984125 546.0317458333333 750 500 750zM500 833.3333333333334C592.0833333333334 833.3333333333334 666.6666666666666 758.75 666.6666666666666 666.6666666666667C666.6666666666666 574.5833333333333 592.0833333333334 500 500 500C407.9166666666667 500 333.3333333333333 574.5833333333333 333.3333333333333 666.6666666666667C333.3333333333333 758.75 407.9166666666667 833.3333333333334 500 833.3333333333334z" />
</svg>