<svg xmlns="http://www.w3.org/2000/svg" width="1000" height="1000" viewBox="0 0 1000 1000">
    <title>uxd-add-task</title>
    <path transform-origin="center" transform="scale(1, -1)" d="M997.5 351.6941666666667L997.5 168.7500000000001L374.0625 168.7500000000001L374.0625 351.6941666666667L997.5 351.6941666666667zM951.3194458333332 303.7546958333335L735.2041916666666 303.7546958333335L735.2041916666666 216.6894708333334L951.3194458333332 216.6894708333334L951.3194458333332 303.7546958333335zM207.8125 709.0625L207.8125 584.375L332.5 584.375L332.5 501.25L207.8125 501.25L207.8125 376.5625L124.6875 376.5625L124.6875 501.25L-2.7e-12 501.25L-2.7e-12 584.375L124.6875 584.375L124.6875 709.0625L207.8125 709.0625zM997.5 592.7220829166667L997.5 409.7779166666667L374.0625 409.7779166666667L374.0625 592.7220829166667L997.5 592.7220829166667zM951.3194458333332 551.6464208333333L601.7745791666666 551.6464208333333L601.7745791666666 464.5811958333334L951.3194458333332 464.5811958333334L951.3194458333332 551.6464208333333zM997.5 833.75L997.5 650.8058345833333L374.0625 650.8058345833333L374.0625 833.75L997.5 833.75zM951.3194458333332 785.8105295833334L809.4517875 785.8105295833334L809.4517875 698.7453049999999L951.3194458333332 698.7453049999999L951.3194458333332 785.8105295833334z" />
</svg>