<svg xmlns="http://www.w3.org/2000/svg" width="1000" height="1000" viewBox="0 0 1000 1000">
    <title>uxd-accessibility</title>
    <path transform-origin="center" transform="scale(1, -1)" d="M498.75 916.875C544.46875 916.875 581.875 879.46875 581.875 833.75C581.875 788.03125 544.46875 750.625 498.75 750.625C453.0312499999999 750.625 415.625 788.03125 415.625 833.75C415.625 879.46875 453.0312499999999 916.875 498.75 916.875L498.75 916.875zM872.8125 625.9375L623.4375 625.9375L623.4375 85.625L540.3124999999999 85.625L540.3124999999999 335L457.1875 335L457.1875 85.625L374.0625 85.625L374.0625 625.9375L124.6875 625.9375L124.6875 709.0625L872.8125 709.0625L872.8125 625.9375L872.8125 625.9375z" />
</svg>