<svg xmlns="http://www.w3.org/2000/svg" width="1000" height="1000" viewBox="0 0 1000 1000">
    <title>uxd-all-inclusive</title>
    <path transform-origin="center" transform="scale(1, -1)" d="M773.0624999999999 724.85625C713.2125 724.85625 656.6875 701.58125 616.3718749999999 661.265625L498.75 556.94375L435.575 501.25L435.990625 501.25L324.1875 401.915625C297.5875 375.315625 262.259375 360.7687500000001 224.4375 360.7687500000001C146.715625 360.7687500000001 83.540625 423.5281250000001 83.540625 501.25C83.540625 578.971875 146.715625 641.73125 224.4375 641.73125C262.259375 641.73125 297.5875 627.184375 325.85 598.921875L372.815625 557.359375L435.575 613.053125L383.20625 659.1875C340.8125 701.58125 284.2875 724.85625 224.4375 724.85625C100.58125 724.85625 0 624.2750000000001 0 501.25C0 378.225 100.58125 277.6437500000001 224.4375 277.6437500000001C284.2875 277.6437500000001 340.8125 300.9187500000001 381.128125 341.234375L498.75 445.140625L499.165625 444.725L561.925 501.25L561.509375 501.25L673.3125 600.584375C699.9124999999999 627.184375 735.240625 641.73125 773.0624999999999 641.73125C850.7843749999998 641.73125 913.959375 578.971875 913.959375 501.25C913.959375 423.5281250000001 850.7843749999998 360.7687500000001 773.0624999999999 360.7687500000001C735.65625 360.7687500000001 699.9124999999999 375.315625 671.6499999999999 403.578125L624.26875 445.5562500000001L561.509375 389.8625000000001L614.2937499999999 343.3125C656.6875 301.334375 712.796875 278.0593750000002 773.0624999999999 278.0593750000002C896.91875 278.0593750000002 997.5 378.225 997.5 501.665625C997.5 625.10625 896.91875 724.85625 773.0624999999999 724.85625L773.0624999999999 724.85625z" />
</svg>