<svg xmlns="http://www.w3.org/2000/svg" width="1000" height="1000" viewBox="0 0 1000 1000">
    <title>uxd-adb</title>
    <path transform-origin="center" transform="scale(1, -1)" d="M207.8125 335C207.8125 174.1531250000001 337.903125 44.0625000000001 498.75 44.0625000000001C659.596875 44.0625000000001 789.6875 174.1531250000001 789.6875 335L789.6875 501.25L207.8125 501.25L207.8125 335L207.8125 335zM669.9875 818.371875L757.26875 905.653125L723.1875 940.15L627.59375 844.140625C588.525 863.675 545.3 875.3125 498.75 875.3125C452.2 875.3125 408.975 863.675 370.321875 844.140625L274.3125 940.15L240.23125 905.653125L327.5125 818.371875C255.19375 765.5875000000001 207.8125 680.8 207.8125 584.375L207.8125 542.8125L789.6875 542.8125L789.6875 584.375C789.6875 680.8 742.3062499999999 765.5875000000001 669.9875 818.371875L669.9875 818.371875zM374.0625 625.9375C351.203125 625.9375 332.5 644.640625 332.5 667.5C332.5 690.359375 351.203125 709.0625 374.0625 709.0625C396.921875 709.0625 415.625 690.359375 415.625 667.5C415.625 644.640625 396.921875 625.9375 374.0625 625.9375L374.0625 625.9375zM623.4375 625.9375C600.578125 625.9375 581.875 644.640625 581.875 667.5C581.875 690.359375 600.578125 709.0625 623.4375 709.0625C646.296875 709.0625 665 690.359375 665 667.5C665 644.640625 646.296875 625.9375 623.4375 625.9375L623.4375 625.9375z" />
</svg>