<svg xmlns="http://www.w3.org/2000/svg" width="1000" height="1000" viewBox="0 0 1000 1000">
    <title>uxd-add-date</title>
    <path transform-origin="center" transform="scale(1, -1)" d="M665.3124999999999 363.6873916666667L532.3124999999999 363.6873916666667L532.3124999999999 230.6873916666666L465.8125 230.6873916666666L465.8125 363.6873916666667L332.8125 363.6873916666667L332.8125 430.1873916666667L465.8125 430.1873916666667L465.8125 563.1873916666667L532.3124999999999 563.1873916666667L532.3124999999999 430.1873916666667L665.3124999999999 430.1873916666667L665.3124999999999 363.6873916666667L665.3124999999999 363.6873916666667zM790 833.5416666666667L748.4374999999999 833.5416666666667L748.4374999999999 916.6666666666666L665.3124999999999 916.6666666666666L665.3124999999999 833.5416666666667L332.8125 833.5416666666667L332.8125 916.6666666666666L249.6875 916.6666666666666L249.6875 833.5416666666667L208.125 833.5416666666667C161.990625 833.5416666666667 125.415625 796.1354166666666 125.415625 750.4166666666667L125 168.5416666666668C125 122.8229166666666 161.990625 85.4166666666667 208.125 85.4166666666667L790 85.4166666666667C835.71875 85.4166666666667 873.1249999999999 122.8229166666666 873.1249999999999 168.5416666666668L873.1249999999999 750.4166666666667C873.1249999999999 796.1354166666666 835.71875 833.5416666666667 790 833.5416666666667L790 833.5416666666667zM790 168.5416666666668L208.125 168.5416666666668L208.125 625.7291666666667L790 625.7291666666667L790 168.5416666666668L790 168.5416666666668z" />
</svg>