<svg xmlns="http://www.w3.org/2000/svg" width="1000" height="1000" viewBox="0 0 1000 1000">
    <title>uxd-aircraft-loading</title>
    <path transform-origin="center" transform="scale(1, -1)" d="M140.5009458333333 203.9678583333333L893.5937499999999 203.9678583333333L893.5937499999999 127.1875L140.5009458333333 127.1875L140.5009458333333 203.9678583333333zM424.1632333333333 649.4562454166667L616.7767749999999 341.5973666666668L834.1916708333332 341.5171000000001C867.0055 341.2796208333333 892.9232041666667 315.4667458333334 892.5582708333333 283.6487791666667C891.8018208333333 251.7315708333333 864.8528875 226.1250833333335 832.1351791666666 225.9908875000001L614.7202833333333 226.0711583333334L436.6435333333333 226.015125L219.132515 226.4670708333334L153.60098 226.57035L103.90625 418.7256125L163.2972075 418.6204L221.2851291666667 341.6216041666667L424.7877916666667 341.5121791666667L345.1993254166667 649.2579370833334L424.1632333333333 649.4562454166667zM759.4984583333332 486.3895666666667C771.7082541666666 479.6215666666667 779.7527624999999 469.4615625 783.6391208333333 455.9082208333333C787.5254791666666 442.3548791666667 786.0851041666666 429.4717500000001 779.320225 417.2628500000001C772.5522249999999 405.0530541666667 762.3859791666666 397.0067541666667 748.8326375 393.1203958333334C735.2730583333332 389.23225 722.3961708333334 390.6744125 710.1903874999999 397.4401875C697.9828166666666 404.2122000000001 689.9351833333333 414.3713125000001 686.048825 427.9246541666667C682.1624708333333 441.4779958333334 683.6028416666666 454.361125 690.3686166666666 466.5669083333333C697.1335 478.7758083333333 707.2903875000001 486.819425 720.8499666666667 490.7075708333334C734.4064249999999 494.594825 747.2895541666666 493.1544500000001 759.4984583333332 486.3895666666667zM638.5460791666667 473.8509833333334C643.6685041666667 471.00895 647.0338125 466.7955000000001 648.6375499999999 461.2026041666667C650.2412875 455.6097041666667 649.6201333333333 450.2531541666667 646.7812208333332 445.131625C643.9423083333332 440.0100916666667 639.7257416666666 436.6438916666667 634.1328416666666 435.0401541666667C628.5461833333333 433.4382041666667 623.1842875 434.0544500000001 618.0618625 436.8964791666667C612.9403291666666 439.7353916666667 609.575025 443.9488416666667 607.9712874999999 449.5417375000001C606.3684416666666 455.1315166666667 606.9887041666667 460.4911875 609.8267208333333 465.6158375C612.6625125 470.736475 616.8853208333334 474.1044666666667 622.4719791666666 475.7064125000001C628.0648749999999 477.31015 633.42365 476.6930125 638.5460791666667 473.8509833333334zM840.6263333333334 550.4983500000001C851.856775 544.2732125 859.2407708333334 534.980425 862.7881375 522.6092958333334C866.3346041666666 510.2412875 864.9979458333333 498.4445166666667 858.7719124999999 487.2171916666667C852.5489999999999 475.9907583333334 843.2539874999999 468.60275 830.8828583333333 465.0553875000001C818.5148499999999 461.5089166666667 806.7171833333333 462.8487 795.4907541666665 469.0716083333334C784.2643249999999 475.2945208333333 776.8763166666666 484.5895333333334 773.3298458333334 496.9575416666667C769.783375 509.3255541666667 771.1231583333333 521.1232166666667 777.345175 532.3527666666666C783.5680874999999 543.5792 792.8630999999999 550.9672083333334 805.2311083333333 554.513675C817.5991166666666 558.0601458333333 829.3958875 556.7234833333334 840.6263333333334 550.4983500000001zM572.7600291666666 560.8272041666667C578.859125 557.4516666666667 582.8836166666666 552.3638666666667 584.8263499999999 545.5887541666666C586.7708708333332 538.8074041666667 586.0522416666666 532.3662875 582.6713625 526.2622833333334C579.2904791666666 520.1582791666667 574.2089166666667 516.1355791666667 567.4306875 514.19195C560.6524583333334 512.248325 554.2144583333334 512.9678458333333 548.1095625 516.35185C542.00065 519.738075 537.9841875 524.8214250000001 536.0405583333334 531.5996541666667C534.0978291666667 538.3747666666667 534.8133375 544.8149875 538.1982291666666 550.9167666666667C541.5791125 557.0207708333334 546.660675 561.0434750000001 553.4389041666666 562.9871C560.2171333333333 564.9307249999999 566.6551333333333 564.2112041666667 572.7600291666666 560.8272041666667zM852.0026958333333 653.27124125C862.2506708333333 647.5880741666667 868.9741499999999 639.1625033333333 872.1798375 627.9829466666667C875.3873125 616.7971512500001 874.1521375 606.0827216666667 868.4720874999999 595.83564375C862.7920416666666 585.58856625 854.3602333333333 578.8632958333334 843.1775541666666 575.6567166666667C831.9948791666666 572.4501333333333 821.28045 573.6853083333333 811.0333708333333 579.3653583333335C800.7845083333333 585.0516433333333 794.0601333333334 593.4803333333334 790.8535499999999 604.6630095833334C787.6478625 615.84256625 788.8830375 626.5569958333333 794.5639791666666 636.8009541666668C800.2431333333333 647.05115125 808.6749416666665 653.7764204166667 819.8576208333333 656.9830012499999C831.0402958333333 660.1895820833333 841.754725 658.9544083333333 852.0026958333333 653.27124125zM588.2144625 670.9693533333334C595.4070833333333 666.9824183333334 600.1223458333333 661.08671125 602.3566666666666 653.2947100000001C604.592775 645.49647 603.7173624999999 638.0010391666667 599.730425 630.8084175C595.7434916666666 623.6157958333333 589.8509041666666 618.9014304166667 582.0526625 616.6653208333333C574.2606625 614.4310004166666 566.7652291666666 615.3064133333334 559.5694916666666 619.2924541666666C552.3759749999999 623.28250875 547.6625041666666 629.1719770833333 545.4263916666666 636.9702170833334C543.1911791666666 644.7653379166667 544.0665916666666 652.26076875 548.0535249999999 659.4533904166667C552.0435833333333 666.64690625 557.9361708333333 671.3612716666667 565.7281708333333 673.5955920833334C573.5264125 675.8317016666667 581.0178291666666 674.9585133333334 588.2144625 670.9693533333334zM782.1370708333333 732.9050604166666C791.2973166666666 727.8248283333334 797.3300291666666 720.2071633333334 800.2459166666665 710.0382583333334C803.1618041666667 699.8693537500001 802.0802958333334 690.2083433333333 797.0063041666666 681.04988375C791.9323083333333 671.8914241666666 784.311525 665.8578175 774.1426208333334 662.9419308333333C764.145275 660.07523875 754.5270416666666 661.1723879166666 745.2852541666666 666.2191120833334C736.0430124999999 671.2792079166667 729.967525 678.8812312499999 727.0516374999999 689.05013625C724.1357499999999 699.21904125 725.2560208333333 708.8979179166668 730.4160249999999 718.07428875C735.5782499999999 727.2546737499999 743.1544708333332 733.2788770833333 753.1518125 736.1455695833333C763.3176 739.0605616666667 772.9786125 737.9790541666666 782.1370708333333 732.9050604166666zM673.5196291666666 742.59286875C681.6956208333332 738.0608445833334 687.0687083333333 731.3072779166666 689.6438125 722.3268245833333C692.2189166666667 713.3463716666668 691.2380041666667 704.7708233333333 686.7090999999999 696.5957295833334C682.1739541666667 688.4188475000001 675.4190583333333 683.0386229166667 666.4386041666666 680.4635191666666C657.4581499999999 677.8884158333333 648.8817083333333 678.8724495833334 640.7057208333333 683.4044737500001C632.5297333333333 687.9364975000001 627.1535208333333 694.6891695833333 624.5784166666666 703.6696229166666C622.0033166666666 712.65007625 622.9842291666666 721.2256245833333 627.5162541666666 729.4016125C632.0482791666667 737.5776000000001 638.8000541666667 742.9569304166666 647.7805083333333 745.53203375C656.7640791666666 748.1080316666666 665.340525 747.1239983333334 673.5196291666666 742.59286875z" />
</svg>