<svg xmlns="http://www.w3.org/2000/svg" width="1000" height="1000" viewBox="0 0 1000 1000">
    <title>uxd-account-circle</title>
    <path transform-origin="center" transform="scale(1, -1)" d="M498.75 916.875C269.325 916.875 83.125 730.675 83.125 501.25C83.125 271.8250000000001 269.325 85.625 498.75 85.625C728.175 85.625 914.375 271.8250000000001 914.375 501.25C914.375 730.675 728.175 916.875 498.75 916.875L498.75 916.875zM498.75 792.1875C567.74375 792.1875 623.4375 736.49375 623.4375 667.5C623.4375 598.50625 567.74375 542.8125 498.75 542.8125C429.75625 542.8125 374.0625 598.50625 374.0625 667.5C374.0625 736.49375 429.75625 792.1875 498.75 792.1875L498.75 792.1875zM498.75 202C394.84375 202 302.990625 255.2000000000001 249.375 335.8312500000001C250.621875 418.5406250000001 415.625 463.8437500000001 498.75 463.8437500000001C581.4593749999999 463.8437500000001 746.878125 418.5406250000001 748.1249999999999 335.8312500000001C694.509375 255.2000000000001 602.6562499999999 202 498.75 202L498.75 202z" />
</svg>