<svg xmlns="http://www.w3.org/2000/svg" width="1000" height="1000" viewBox="0 0 1000 1000">
    <title>uxd-add-a-photo</title>
    <path transform-origin="center" transform="scale(1, -1)" d="M124.6875 833.75L124.6875 958.4375L207.8125 958.4375L207.8125 833.75L332.5 833.75L332.5 750.625L207.8125 750.625L207.8125 625.9375L124.6875 625.9375L124.6875 750.625L0 750.625L0 833.75L124.6875 833.75L124.6875 833.75zM249.375 584.375L249.375 709.0625L374.0625 709.0625L374.0625 833.75L665 833.75L741.0593749999999 750.625L872.8125 750.625C918.53125 750.625 955.9374999999998 713.21875 955.9374999999998 667.5L955.9374999999998 168.7500000000001C955.9374999999998 123.0312500000001 918.53125 85.625 872.8125 85.625L207.8125 85.625C162.09375 85.625 124.6875 123.0312500000001 124.6875 168.7500000000001L124.6875 584.375L249.375 584.375L249.375 584.375zM540.3124999999999 210.3125C655.025 210.3125 748.1249999999999 303.4125 748.1249999999999 418.125C748.1249999999999 532.8375000000001 655.025 625.9375 540.3124999999999 625.9375C425.6 625.9375 332.5 532.8375000000001 332.5 418.125C332.5 303.4125 425.6 210.3125 540.3124999999999 210.3125L540.3124999999999 210.3125zM407.3125 418.125C407.3125 344.5593750000001 466.7468749999999 285.125 540.3124999999999 285.125C613.878125 285.125 673.3125 344.5593750000001 673.3125 418.125C673.3125 491.690625 613.878125 551.125 540.3124999999999 551.125C466.7468749999999 551.125 407.3125 491.690625 407.3125 418.125L407.3125 418.125z" />
</svg>