<svg xmlns="http://www.w3.org/2000/svg" width="1000" height="1000" viewBox="0 0 1000 1000">
    <title>uxd-assigned-0-1-alt</title>
    <path transform-origin="center" transform="scale(1, -1)" d="M249.375 928.096875C283.12375 928.096875 310.471875 900.74875 310.471875 867C310.471875 833.25125 283.12375 805.903125 249.375 805.903125C215.62625 805.903125 188.278125 833.25125 188.278125 867C188.278125 900.74875 215.62625 928.096875 249.375 928.096875L249.375 928.096875zM249.375 666.253125C335.7834375 666.253125 426.846875 623.77625 426.846875 605.15625L426.846875 573.153125L71.903125 573.153125L71.903125 605.15625C71.903125 623.77625 162.9665625 666.253125 249.375 666.253125L249.375 666.253125zM249.375 983.375C185.0778125 983.375 133 931.2971875 133 867C133 802.7028125 185.0778125 750.625 249.375 750.625C313.6721875 750.625 365.75 802.7028125 365.75 867C365.75 931.2971875 313.6721875 983.375 249.375 983.375L249.375 983.375zM249.375 721.53125C171.6946875 721.53125 16.625 682.545625 16.625 605.15625L16.625 517.875L482.1249999999999 517.875L482.1249999999999 605.15625C482.1249999999999 682.545625 327.0553125 721.53125 249.375 721.53125L249.375 721.53125z" />
</svg>