<svg xmlns="http://www.w3.org/2000/svg" width="1000" height="1000" viewBox="0 0 1000 1000">
    <title>uxd-add-shopping-cart</title>
    <path transform-origin="center" transform="scale(1, -1)" d="M457.1875 625.9375L540.3124999999999 625.9375L540.3124999999999 750.625L665 750.625L665 833.75L540.3124999999999 833.75L540.3124999999999 958.4375L457.1875 958.4375L457.1875 833.75L332.5 833.75L332.5 750.625L457.1875 750.625L457.1875 625.9375L457.1875 625.9375zM290.9375 251.8750000000001C245.21875 251.8750000000001 208.228125 214.46875 208.228125 168.7500000000001C208.228125 123.0312500000001 245.21875 85.625 290.9375 85.625C336.65625 85.625 374.0625 123.0312500000001 374.0625 168.7500000000001C374.0625 214.46875 336.65625 251.8750000000001 290.9375 251.8750000000001L290.9375 251.8750000000001zM706.5624999999999 251.8750000000001C660.84375 251.8750000000001 623.853125 214.46875 623.853125 168.7500000000001C623.853125 123.0312500000001 660.84375 85.625 706.5624999999999 85.625C752.2812499999999 85.625 789.6875 123.0312500000001 789.6875 168.7500000000001C789.6875 214.46875 752.2812499999999 251.8750000000001 706.5624999999999 251.8750000000001L706.5624999999999 251.8750000000001zM298.003125 386.953125L299.25 391.9406250000001L336.65625 459.6875000000001L646.296875 459.6875000000001C677.46875 459.6875000000001 704.9 476.7281250000001 719.03125 502.496875L879.4624999999999 793.85L807.14375 833.75L806.7281249999999 833.75L761.009375 750.625L646.296875 542.8125L354.528125 542.8125L349.125 554.034375L256.025 750.625L216.540625 833.75L177.471875 916.875L41.5625 916.875L41.5625 833.75L124.6875 833.75L274.3125 518.290625L218.203125 416.4625000000001C211.553125 404.8250000000001 207.8125 391.109375 207.8125 376.5625C207.8125 330.84375 245.21875 293.4375000000001 290.9375 293.4375000000001L789.6875 293.4375000000001L789.6875 376.5625L308.39375 376.5625C302.990625 376.5625 298.003125 381.1343750000001 298.003125 386.953125L298.003125 386.953125z" />
</svg>