<svg xmlns="http://www.w3.org/2000/svg" width="1000" height="1000" viewBox="0 0 1000 1000">
    <title>uxd-action-bolt-unassigned</title>
    <path transform-origin="center" transform="scale(1, -1)" d="M463.8408208333333 607.234375L481.6134083333333 673.8808170833333L534.4978874999999 872.1953125L338.1241470833333 872.1953125L288.6709541666667 501.25L537.1176916666666 501.25L498.7499 271.6171875L700.9443625 607.234375L463.8408208333333 607.234375zM546.9476874999999 713.21875L543.3065083333333 699.5644954166667L532.8162708333333 660.2265625L573.5288999999999 660.2265625L587.6603125 660.2265625L723.9210041666666 660.2265625C754.5273041666666 660.2265625 773.6243666666667 627.0103970833334 758.3162458333333 600.56895125L432.4954375 77.3125L457.5571749999999 448.2578125L428.2011583333333 448.2578125L415.6500333333334 448.2578125L273.5387475 448.2578125C249.5266625 448.2578125 230.96614875 469.4265333333334 234.1440241666667 493.2548041666667L287.1295875 890.6962100000001C289.7609808333334 910.4407679166666 306.6042166666667 925.1875 326.5243108333333 925.1875L551.7411083333333 925.1875C577.8331375 925.1875 596.8672666666666 900.42027625 590.1438833333333 875.2026191666666L546.9476874999999 713.21875z" />
</svg>