<svg xmlns="http://www.w3.org/2000/svg" width="1000" height="1000" viewBox="0 0 1000 1000">
    <title>uxd-asc</title>
    <path transform-origin="center" transform="scale(1, -1)" d="M477.9687499999999 958.4375L872.8125 750.625L872.8125 85.625L83.125 85.625L83.125 750.625L477.9687499999999 958.4375zM478.6896499999999 584.3936991666667C436.7302333333333 584.3936991666667 400.1359066666667 576.5562541666667 369.9062341666667 561.0673791666667L369.9062341666667 437.1011583333334C369.9062341666667 410.9969250000001 380.0363625 389.2176041666668 399.1874041666667 374.016475C416.9836583333333 359.9169208333334 471.9975583333333 336.6436458333334 478.6888958333333 333.8134166666667C485.108375 336.5128500000001 540.800425 360.15235 558.2992833333333 374.016475C577.4225375 389.2176041666668 587.5526666666666 410.9962000000001 587.5526666666666 437.1011583333334L587.5526666666666 561.0673791666667C557.3237458333333 576.5569791666667 520.6745958333333 584.3936991666667 478.6896499999999 584.3936991666667zM769.9586958333333 584.3936991666667L768.9940708333332 584.0424954166667C761.2969541666665 581.3290875 707.7751458333333 564.0671916666666 617.0207791666666 573.8239166666667L617.0207791666666 446.9865125L618.4467208333333 447.005775C630.4629 447.2561500000001 713.9159249999999 450.7614375000001 695.4287916666666 499.8354333333334C748.1104208333333 499.8354333333334 785.4508166666667 534.4283833333334 769.9586958333333 584.3936991666667zM184.80017375 584.3936991666667C169.3080508333333 534.4283833333334 206.6484470833333 499.8354333333334 259.33007875 499.8354333333334C239.4208579166667 446.9865125 337.7380895833334 446.9865125 337.7380895833334 446.9865125L337.7380895833334 573.8239166666667C239.4208579166667 563.2541333333334 184.80017375 584.3936991666667 184.80017375 584.3936991666667z" />
</svg>