<svg xmlns="http://www.w3.org/2000/svg" width="1000" height="1000" viewBox="0 0 1000 1000">
    <title>uxd-assigned-4-4</title>
    <path transform-origin="center" transform="scale(1, -1)" d="M124.6875 501.25C156.83609375 501.25 182.875 527.2889083333334 182.875 559.4375C182.875 591.58609375 156.83609375 617.625 124.6875 617.625C92.53890625 617.625 66.5 591.58609375 66.5 559.4375C66.5 527.2889083333334 92.53890625 501.25 124.6875 501.25L124.6875 501.25zM124.6875 472.15625C163.52765625 472.15625 241.0625 452.6634375 241.0625 413.96875L241.0625 413.96875L241.0625 384.875L8.3125 384.875L8.3125 413.96875C8.3125 452.6634375 85.84734375 472.15625 124.6875 472.15625zM374.0625 472.15625C412.90265625 472.15625 490.4375 452.6634375 490.4375 413.96875L490.4375 413.96875L490.4375 384.875L257.6875 384.875L257.6875 413.96875C257.6875 452.6634375 335.22234375 472.15625 374.0625 472.15625zM623.4375 472.15625C662.2776583333333 472.15625 739.8125 452.6634375 739.8125 413.96875L739.8125 413.96875L739.8125 384.875L507.0624999999999 384.875L507.0624999999999 413.96875C507.0624999999999 452.6634375 584.5973458333333 472.15625 623.4375 472.15625zM872.8125 472.15625C911.6526583333334 472.15625 989.1875 452.6634375 989.1875 413.96875L989.1875 413.96875L989.1875 384.875L756.4374999999999 384.875L756.4374999999999 413.96875C756.4374999999999 452.6634375 833.9723458333333 472.15625 872.8125 472.15625zM374.0625 617.625C406.21109375 617.625 432.25 591.58609375 432.25 559.4375C432.25 527.2889083333334 406.21109375 501.25 374.0625 501.25C341.91390625 501.25 315.875 527.2889083333334 315.875 559.4375C315.875 591.58609375 341.91390625 617.625 374.0625 617.625zM623.4375 617.625C655.5860958333333 617.625 681.625 591.58609375 681.625 559.4375C681.625 527.2889083333334 655.5860958333333 501.25 623.4375 501.25C591.2889083333333 501.25 565.25 527.2889083333334 565.25 559.4375C565.25 591.58609375 591.2889083333333 617.625 623.4375 617.625zM872.8125 617.625C904.9610958333334 617.625 931 591.58609375 931 559.4375C931 527.2889083333334 904.9610958333334 501.25 872.8125 501.25C840.6639083333332 501.25 814.6249999999999 527.2889083333334 814.6249999999999 559.4375C814.6249999999999 591.58609375 840.6639083333332 617.625 872.8125 617.625z" />
</svg>