<svg xmlns="http://www.w3.org/2000/svg" width="1000" height="1000" viewBox="0 0 1000 1000">
    <title>uxd-assignment-ind</title>
    <path transform-origin="center" transform="scale(1, -1)" d="M789.6875 875.3125L615.95625 875.3125C598.5 923.525 552.78125 958.4375 498.75 958.4375C444.71875 958.4375 399 923.525 381.54375 875.3125L207.8125 875.3125C162.09375 875.3125 124.6875 837.90625 124.6875 792.1875L124.6875 210.3125C124.6875 164.5937500000001 162.09375 127.1875 207.8125 127.1875L789.6875 127.1875C835.4062499999999 127.1875 872.8125 164.5937500000001 872.8125 210.3125L872.8125 792.1875C872.8125 837.90625 835.4062499999999 875.3125 789.6875 875.3125L789.6875 875.3125zM498.75 875.3125C521.609375 875.3125 540.3124999999999 856.609375 540.3124999999999 833.75C540.3124999999999 810.890625 521.609375 792.1875 498.75 792.1875C475.8906249999999 792.1875 457.1875 810.890625 457.1875 833.75C457.1875 856.609375 475.8906249999999 875.3125 498.75 875.3125L498.75 875.3125zM498.75 709.0625C567.74375 709.0625 623.4375 653.36875 623.4375 584.375C623.4375 515.38125 567.74375 459.6875000000001 498.75 459.6875000000001C429.75625 459.6875000000001 374.0625 515.38125 374.0625 584.375C374.0625 653.36875 429.75625 709.0625 498.75 709.0625L498.75 709.0625zM748.1249999999999 210.3125L249.375 210.3125L249.375 268.5C249.375 351.625 415.625 397.3437500000001 498.75 397.3437500000001C581.875 397.3437500000001 748.1249999999999 351.625 748.1249999999999 268.5L748.1249999999999 210.3125L748.1249999999999 210.3125z" />
</svg>