<svg xmlns="http://www.w3.org/2000/svg" width="1000" height="1000" viewBox="0 0 1000 1000">
    <title>uxd-airplay</title>
    <path transform-origin="center" transform="scale(1, -1)" d="M249.375 85.625L748.1249999999999 85.625L498.75 335L249.375 85.625zM872.8125 875.3125L124.6875 875.3125C78.96875 875.3125 41.5625 837.90625 41.5625 792.1875L41.5625 293.4375000000001C41.5625 247.7187500000001 78.96875 210.3125 124.6875 210.3125L290.9375 210.3125L290.9375 293.4375000000001L124.6875 293.4375000000001L124.6875 792.1875L872.8125 792.1875L872.8125 293.4375000000001L706.5624999999999 293.4375000000001L706.5624999999999 210.3125L872.8125 210.3125C918.53125 210.3125 955.9374999999998 247.7187500000001 955.9374999999998 293.4375000000001L955.9374999999998 792.1875C955.9374999999998 837.90625 918.53125 875.3125 872.8125 875.3125L872.8125 875.3125z" />
</svg>