<svg xmlns="http://www.w3.org/2000/svg" width="1000" height="1000" viewBox="0 0 1000 1000">
    <title>uxd-Airplanemode-inactive</title>
    <path transform-origin="center" transform="scale(1, -1)" d="M540.3124999999999 625.9375L540.3124999999999 854.53125C540.3124999999999 889.028125 512.4656249999999 916.875 477.9687499999999 916.875C443.471875 916.875 415.625 889.028125 415.625 854.53125L415.625 701.58125L741.0593749999999 376.146875L872.8125 335L872.8125 418.125L540.3124999999999 625.9375L540.3124999999999 625.9375zM124.6875 780.965625L332.084375 573.5687500000001L83.125 418.125L83.125 335L415.625 438.90625L415.625 210.3125L332.5 147.96875L332.5 85.625L477.9687499999999 127.1875L623.4375 85.625L623.4375 147.96875L540.3124999999999 210.3125L540.3124999999999 365.3406250000001L778.4656249999999 127.1875L831.2499999999999 179.9718750000001L177.471875 833.75L124.6875 780.965625L124.6875 780.965625z" />
</svg>