<svg xmlns="http://www.w3.org/2000/svg" width="1000" height="1000" viewBox="0 0 1000 1000">
    <title>uxd-android</title>
    <path transform-origin="center" transform="scale(1, -1)" d="M249.375 251.8750000000001C249.375 229.0156250000001 268.078125 210.3125 290.9375 210.3125L332.5 210.3125L332.5 64.84375C332.5 30.3468750000001 360.346875 2.5 394.84375 2.5C429.340625 2.5 457.1875 30.3468750000001 457.1875 64.84375L457.1875 210.3125L540.3124999999999 210.3125L540.3124999999999 64.84375C540.3124999999999 30.3468750000001 568.159375 2.5 602.6562499999999 2.5C637.1531249999999 2.5 665 30.3468750000001 665 64.84375L665 210.3125L706.5624999999999 210.3125C729.421875 210.3125 748.1249999999999 229.0156250000001 748.1249999999999 251.8750000000001L748.1249999999999 667.5L249.375 667.5L249.375 251.8750000000001L249.375 251.8750000000001zM145.46875 667.5C110.971875 667.5 83.125 639.653125 83.125 605.15625L83.125 314.2187500000001C83.125 279.7218750000001 110.971875 251.8750000000001 145.46875 251.8750000000001C179.965625 251.8750000000001 207.8125 279.7218750000001 207.8125 314.2187500000001L207.8125 605.15625C207.8125 639.653125 179.965625 667.5 145.46875 667.5L145.46875 667.5zM852.03125 667.5C817.534375 667.5 789.6875 639.653125 789.6875 605.15625L789.6875 314.2187500000001C789.6875 279.7218750000001 817.534375 251.8750000000001 852.03125 251.8750000000001C886.5281249999999 251.8750000000001 914.375 279.7218750000001 914.375 314.2187500000001L914.375 605.15625C914.375 639.653125 886.5281249999999 667.5 852.03125 667.5L852.03125 667.5zM645.4656249999999 910.225L699.496875 964.25625C707.809375 972.56875 707.809375 985.453125 699.496875 993.765625C691.184375 1002.078125 678.3 1002.078125 669.9875 993.765625L608.475 932.253125C575.640625 948.878125 538.2343749999999 958.4375 498.75 958.4375C458.85 958.4375 421.44375 948.878125 388.19375 932.253125L326.265625 993.765625C317.953125 1002.078125 305.06875 1002.078125 296.75625 993.765625C288.44375 985.453125 288.44375 972.56875 296.75625 964.25625L351.203125 909.809375C289.690625 864.50625 249.375 791.771875 249.375 709.0625L748.1249999999999 709.0625C748.1249999999999 791.771875 707.809375 864.921875 645.4656249999999 910.225L645.4656249999999 910.225zM415.625 792.1875L374.0625 792.1875L374.0625 833.75L415.625 833.75L415.625 792.1875L415.625 792.1875zM623.4375 792.1875L581.875 792.1875L581.875 833.75L623.4375 833.75L623.4375 792.1875L623.4375 792.1875z" />
</svg>