<svg xmlns="http://www.w3.org/2000/svg" width="1000" height="1000" viewBox="0 0 1000 1000">
    <title>uxd-ac-unit</title>
    <path transform-origin="center" transform="scale(1, -1)" d="M914.375 542.8125L741.0593749999999 542.8125L875.721875 677.475L817.11875 736.49375L623.4375 542.8125L540.3124999999999 542.8125L540.3124999999999 625.9375L733.9937499999999 819.61875L674.975 878.221875L540.3124999999999 743.559375L540.3124999999999 916.875L457.1875 916.875L457.1875 743.559375L322.525 878.221875L263.50625 819.61875L457.1875 625.9375L457.1875 542.8125L374.0625 542.8125L180.38125 736.49375L121.778125 677.475L256.440625 542.8125L83.125 542.8125L83.125 459.6875000000001L256.440625 459.6875000000001L121.778125 325.025L180.38125 266.0062500000002L374.0625 459.6875000000001L457.1875 459.6875000000001L457.1875 376.5625L263.50625 182.88125L322.525 124.2781250000001L457.1875 258.9406250000001L457.1875 85.625L540.3124999999999 85.625L540.3124999999999 258.9406250000001L674.975 124.2781250000001L733.9937499999999 182.88125L540.3124999999999 376.5625L540.3124999999999 459.6875000000001L623.4375 459.6875000000001L817.11875 266.0062500000002L875.721875 325.025L741.0593749999999 459.6875000000001L914.375 459.6875000000001z" />
</svg>