<svg xmlns="http://www.w3.org/2000/svg" width="1000" height="1000" viewBox="0 0 1000 1000">
    <title>uxd-assignment-turned-in</title>
    <path transform-origin="center" transform="scale(1, -1)" d="M791.6666666666666 875.1041666666666L617.5 875.1041666666666C600 923.4375 554.1666666666666 958.4375 500 958.4375C445.8333333333333 958.4375 400 923.4375 382.5 875.1041666666666L208.3333333333333 875.1041666666666C162.5 875.1041666666666 125 837.6041666666667 125 791.7708333333334L125 208.4375000000001C125 162.6041666666668 162.5 125.1041666666668 208.3333333333333 125.1041666666668L791.6666666666666 125.1041666666668C837.5 125.1041666666668 875 162.6041666666668 875 208.4375000000001L875 791.7708333333334C875 837.6041666666667 837.5 875.1041666666666 791.6666666666666 875.1041666666666L791.6666666666666 875.1041666666666zM500 875.1041666666666C522.9166666666666 875.1041666666666 541.6666666666666 856.3541666666667 541.6666666666666 833.4375C541.6666666666666 810.5208333333334 522.9166666666666 791.7708333333334 500 791.7708333333334C477.0833333333333 791.7708333333334 458.3333333333333 810.5208333333334 458.3333333333333 833.4375C458.3333333333333 856.3541666666667 477.0833333333333 875.1041666666666 500 875.1041666666666L500 875.1041666666666zM416.6666666666667 291.7708333333334L250 458.4375L308.75 517.1875L416.6666666666667 409.6875L691.25 684.2708333333334L750 625.1041666666667L416.6666666666667 291.7708333333334L416.6666666666667 291.7708333333334z" />
</svg>