<svg xmlns="http://www.w3.org/2000/svg" width="1000" height="1000" viewBox="0 0 1000 1000">
    <title>uxd-aspect-ratio</title>
    <path transform-origin="center" transform="scale(1, -1)" d="M789.6875 501.25L706.5624999999999 501.25L706.5624999999999 376.5625L581.875 376.5625L581.875 293.4375000000001L789.6875 293.4375000000001L789.6875 501.25L789.6875 501.25zM290.9375 625.9375L415.625 625.9375L415.625 709.0625L207.8125 709.0625L207.8125 501.25L290.9375 501.25L290.9375 625.9375L290.9375 625.9375zM872.8125 875.3125L124.6875 875.3125C78.96875 875.3125 41.5625 837.90625 41.5625 792.1875L41.5625 210.3125C41.5625 164.5937500000001 78.96875 127.1875 124.6875 127.1875L872.8125 127.1875C918.53125 127.1875 955.9374999999998 164.5937500000001 955.9374999999998 210.3125L955.9374999999998 792.1875C955.9374999999998 837.90625 918.53125 875.3125 872.8125 875.3125L872.8125 875.3125zM872.8125 209.896875L124.6875 209.896875L124.6875 792.603125L872.8125 792.603125L872.8125 209.896875L872.8125 209.896875z" />
</svg>