<svg xmlns="http://www.w3.org/2000/svg" width="1000" height="1000" viewBox="0 0 1000 1000">
    <title>uxd-airline-seat-flat-angled</title>
    <path transform-origin="center" transform="scale(1, -1)" d="M924.765625 406.0718750000001L896.0875 327.5187500000001L382.375 513.303125L468.8249999999999 748.546875L824.6 620.11875C911.88125 588.53125 956.76875 492.9375000000001 924.765625 406.0718750000001L924.765625 406.0718750000001zM62.34375 495.43125L332.5 398.1750000000001L332.5 210.3125L665 210.3125L665 278.0593750000002L852.8624999999998 210.3125L881.5406249999999 288.865625L91.021875 573.984375L62.34375 495.43125L62.34375 495.43125zM303.40625 576.0625C365.334375 605.9875 391.51875 680.3843750000001 362.0093749999999 742.3125C332.084375 804.240625 257.6875 830.425 195.34375 800.5C133.415625 770.990625 107.23125 696.59375 137.15625 634.25C166.665625 572.3218750000001 241.0625 546.1375 303.40625 576.0625L303.40625 576.0625z" />
</svg>