<svg xmlns="http://www.w3.org/2000/svg" width="1000" height="1000" viewBox="0 0 1000 1000">
    <title>uxd-accessible-alt</title>
    <path transform-origin="center" transform="scale(1, -1)" d="M810.3198458333334 501.5499166666667L790.2133916666667 256.3758625000001C785.0698791666665 192.9392208333334 690.6163041666666 201.6676041666667 695.7598166666667 264.0132L711.3462124999999 454.9465833333334L647.2861166666667 451.3617125000001C663.0283791666667 419.0978666666666 671.912625 382.9374208333334 671.912625 344.5948833333335C671.912625 280.3789166666667 646.8185208333333 221.9299208333334 605.9821583333334 178.5997333333334L544.7276083333333 239.8542833333334C634.9728583333333 339.1396416666668 565.1457916666667 500.4588708333334 429.3882583333334 500.4588708333334C389.0194858333333 500.4588708333334 352.2355845833333 485.0283333333333 324.64765875 459.9342333333334L263.39311125 521.1887791666667C297.68318875 553.4526250000001 341.4809695833333 575.8970416666666 390.2663979166666 583.8461037500001L507.6319791666666 717.4215416666667L441.2339208333334 756.0758108333333L360.8081041666666 684.37837625C314.0489075 642.6068270833333 250.7681283333333 713.2132141666667 297.68318875 755.1406266666667L403.6707008333334 849.7500679166667C418.9453708333333 863.46609875 441.2339208333334 865.6481945833333 459.0024166666666 855.36117125C459.0024166666666 855.36117125 676.1209541666666 729.2672045833333 676.4326791666666 728.9554766666668C701.6826458333334 713.2132141666667 708.696525 672.8444408333334 685.9403833333333 646.97101875L594.9158125 543.3214666666668L760.2875041666666 552.5174416666666C789.1223458333334 554.2319458333334 812.6578041666666 530.0730291666666 810.3198458333334 501.5499166666667zM709.1641166666666 741.58046C752.9618999999999 741.58046 788.4988874999999 777.1174491666667 788.4988874999999 820.9152300000001C788.4988874999999 864.7130108333333 752.9618999999999 900.25 709.1641166666666 900.25C665.3663375 900.25 629.8293458333333 864.7130108333333 629.8293458333333 820.9152300000001C629.8293458333333 777.1174491666667 665.3663375 741.58046 709.1641166666666 741.58046zM429.5441208333333 188.7308916666667C303.9177483333333 188.7308916666667 230.9734016666667 329.9436666666668 300.6446045833333 432.0345791666668L238.76660125 493.9125833333334C206.3468916666667 452.9203541666667 187.0197570833333 401.0176458333334 187.0197570833333 344.7507458333335C187.0197570833333 141.0365125 421.9067875 30.840675 578.861825 153.8173583333334L516.9838208333333 215.6953625C492.0455833333333 198.7061875000001 461.9638333333333 188.7308916666667 429.5441208333333 188.7308916666667z" />
</svg>