<svg xmlns="http://www.w3.org/2000/svg" width="1000" height="1000" viewBox="0 0 1000 1000">
    <title>uxd-announcement</title>
    <path transform-origin="center" transform="scale(1, -1)" d="M831.2499999999999 916.875L166.25 916.875C120.53125 916.875 83.540625 879.46875 83.540625 833.75L83.125 85.625L249.375 251.8750000000001L831.2499999999999 251.8750000000001C876.9687499999999 251.8750000000001 914.375 289.28125 914.375 335L914.375 833.75C914.375 879.46875 876.9687499999999 916.875 831.2499999999999 916.875L831.2499999999999 916.875zM540.3124999999999 542.8125L457.1875 542.8125L457.1875 792.1875L540.3124999999999 792.1875L540.3124999999999 542.8125L540.3124999999999 542.8125zM540.3124999999999 376.5625L457.1875 376.5625L457.1875 459.6875000000001L540.3124999999999 459.6875000000001L540.3124999999999 376.5625L540.3124999999999 376.5625z" />
</svg>