<svg xmlns="http://www.w3.org/2000/svg" width="1000" height="1000" viewBox="0 0 1000 1000">
    <title>uxd-airline-seat-legroom-extra</title>
    <path transform-origin="center" transform="scale(1, -1)" d="M166.25 501.25L166.25 875.3125L83.125 875.3125L83.125 501.25C83.125 386.5375 176.225 293.4375000000001 290.9375 293.4375000000001L540.3124999999999 293.4375000000001L540.3124999999999 376.5625L290.9375 376.5625C221.94375 376.5625 166.25 432.25625 166.25 501.25L166.25 501.25zM948.871875 283.4625000000001C933.078125 313.3875000000001 895.2562499999999 323.7781250000001 864.5 309.646875L819.196875 288.865625L677.46875 578.971875C663.3375 607.234375 634.659375 625.521875 603.071875 625.521875L457.1875 625.9375L457.1875 875.3125L207.8125 875.3125L207.8125 542.8125C207.8125 473.81875 263.50625 418.125 332.5 418.125L623.4375 418.125L765.165625 127.1875L919.778125 197.84375C951.7812499999998 212.8062500000001 965.496875 251.8750000000001 948.871875 283.4625000000001L948.871875 283.4625000000001z" />
</svg>