<svg xmlns="http://www.w3.org/2000/svg" width="1000" height="1000" viewBox="0 0 1000 1000">
    <title>uxd-assigned-2-2-alt</title>
    <path transform-origin="center" transform="scale(1, -1)" d="M249.375 692.4375C327.0553125 692.4375 482.1249999999999 653.451875 482.1249999999999 576.0625L482.1249999999999 576.0625L482.1249999999999 517.875L16.625 517.875L16.625 576.0625C16.625 653.451875 171.6946875 692.4375 249.375 692.4375zM748.1249999999999 692.4375C825.8053124999999 692.4375 980.875 653.451875 980.875 576.0625L980.875 576.0625L980.875 517.875L515.375 517.875L515.375 576.0625C515.375 653.451875 670.4446875 692.4375 748.1249999999999 692.4375zM249.375 983.375L256.46682125 983.1627130416666C317.4583658333334 979.5006224166668 365.75 928.91581 365.75 867C365.75 802.7028125 313.6721875 750.625 249.375 750.625C185.0778125 750.625 133 802.7028125 133 867C133 931.2971875 185.0778125 983.375 249.375 983.375L249.375 983.375zM748.1249999999999 983.375L755.2168208333333 983.1627130416666C816.2083666666666 979.5006224166668 864.5 928.91581 864.5 867C864.5 802.7028125 812.4221875 750.625 748.1249999999999 750.625C683.8278124999999 750.625 631.75 802.7028125 631.75 867C631.75 931.2971875 683.8278124999999 983.375 748.1249999999999 983.375L748.1249999999999 983.375z" />
</svg>