<svg xmlns="http://www.w3.org/2000/svg" width="1000" height="1000" viewBox="0 0 1000 1000">
    <title>uxd-art-track</title>
    <path transform-origin="center" transform="scale(1, -1)" d="M914.375 459.6875000000001L581.875 459.6875000000001L581.875 542.8125L914.375 542.8125L914.375 459.6875000000001L914.375 459.6875000000001zM914.375 709.0625L581.875 709.0625L581.875 625.9375L914.375 625.9375L914.375 709.0625L914.375 709.0625zM581.875 293.4375000000001L914.375 293.4375000000001L914.375 376.5625L581.875 376.5625L581.875 293.4375000000001L581.875 293.4375000000001zM498.75 625.9375L498.75 376.5625C498.75 330.84375 461.34375 293.4375000000001 415.625 293.4375000000001L166.25 293.4375000000001C120.53125 293.4375000000001 83.125 330.84375 83.125 376.5625L83.125 625.9375C83.125 671.65625 120.53125 709.0625 166.25 709.0625L415.625 709.0625C461.34375 709.0625 498.75 671.65625 498.75 625.9375L498.75 625.9375zM436.40625 376.5625L342.890625 501.25L270.15625 407.31875L218.203125 470.078125L145.46875 376.5625L436.40625 376.5625L436.40625 376.5625z" />
</svg>