<svg xmlns="http://www.w3.org/2000/svg" width="1000" height="1000" viewBox="0 0 1000 1000">
    <title>uxd-aircraft-park</title>
    <path transform-origin="center" transform="scale(1, -1)" d="M507.0624999999999 916.875C741.1967166666667 916.875 931 727.07171625 931 492.9375000000001C931 258.8032833333333 741.1967166666667 69 507.0624999999999 69C272.92828375 69 83.125 258.8032833333333 83.125 492.9375000000001C83.125 727.07171625 272.92828375 916.875 507.0624999999999 916.875zM782.4624291666667 516.3060416666667C770.2659416666665 528.5025291666667 750.5752291666666 528.5025291666667 738.3787416666667 516.3060416666667L738.3787416666667 516.3060416666667L657.5586458333333 435.4859458333334L466.5293291666666 479.5696333333334L437.1402041666667 450.1805083333334L591.4331125 369.3604125000001L510.6130166666667 288.5403166666667L459.1820499999999 295.8876000000002L437.1402041666667 273.8457541666668L503.2657375 237.1093458333334L540.0021458333333 170.9838125L562.0439875 193.0256583333334L554.6967083333333 244.4566291666667L635.5168041666666 325.2767250000001L716.3368958333333 170.9838125L745.7260249999999 200.3729416666666L701.6423333333333 391.4022541666667L782.4624291666667 472.22235C794.6589166666666 484.4188375000001 794.6589166666666 504.1095541666667 782.4624291666667 516.3060416666667zM428.2878375 784.1289670833334L247.38360625 784.1289670833334L247.38360625 356.9490208333334L310.8472970833334 356.9490208333334L310.8472970833334 530.6183541666667L433.8490875 530.6183541666667C501.6742374999999 530.6181791666667 548.5631791666666 543.1965749999999 574.5160333333333 568.3535583333334C600.4681291666667 593.5101270833334 613.4443749999999 624.2518991666666 613.4447916666667 660.5789679166667C613.4443749999999 681.7530970833334 608.5919208333332 701.1791712500001 598.8873958333332 718.8572712499999C589.1820791666667 736.53464375 576.3693999999999 750.2785945833334 560.4493416666666 760.0891679166666C544.5285458333333 769.89893625 524.7915791666666 776.5523691666667 501.238375 780.0494858333334C484.4452874999999 782.7687141666667 460.1284583333333 784.1285408333333 428.2878375 784.1289670833334L428.2878375 784.1289670833334zM433.5219583333333 733.7182329166667C462.3093458333333 733.7178633333333 482.0463125 732.4551675 492.732925 729.9301454166666C509.3073166666667 725.8502995833333 522.6652124999999 717.4485229166667 532.80665 704.72478125C542.9474083333333 692.0003466666667 548.0179499999999 676.7023133333333 548.0183 658.8306241666667C548.0179499999999 634.1591954166668 539.4034708333334 615.02451 522.1748416666666 601.4264979166667C504.9455541666666 587.8279895833333 475.8308041666666 581.0288625000001 434.8304875 581.0290916666667L434.8304875 581.0290916666667L310.8472970833334 581.0290916666667L310.8472970833334 733.7182329166667z" />
</svg>