<svg xmlns="http://www.w3.org/2000/svg" width="1000" height="1000" viewBox="0 0 1000 1000">
    <title>uxd-all-out</title>
    <path transform-origin="center" transform="scale(1, -1)" d="M673.7281249999999 827.1L839.978125 660.85L839.978125 827.1L673.7281249999999 827.1zM839.978125 328.3500000000002L673.7281249999999 162.1L839.978125 162.1L839.978125 328.3500000000002zM341.228125 162.1L174.978125 328.3500000000002L174.978125 162.1L341.228125 162.1zM174.978125 660.85L341.228125 827.1L174.978125 827.1L174.978125 660.85zM713.2125 700.334375C599.7468749999999 813.8 415.209375 813.8 301.74375 700.334375C188.278125 586.86875 188.278125 402.3312500000001 301.74375 288.865625C415.209375 175.4 599.7468749999999 175.4 713.2125 288.865625C826.6781249999999 402.3312500000001 826.6781249999999 586.453125 713.2125 700.334375L713.2125 700.334375zM667.49375 334.584375C578.9656249999999 246.05625 435.990625 246.05625 347.4625 334.584375C258.934375 423.1125000000001 258.934375 566.0875000000001 347.4625 654.615625C435.990625 743.14375 578.9656249999999 743.14375 667.49375 654.615625C756.021875 566.0875000000001 756.021875 423.1125000000001 667.49375 334.584375L667.49375 334.584375z" />
</svg>