<svg xmlns="http://www.w3.org/2000/svg" width="1000" height="1000" viewBox="0 0 1000 1000">
    <title>uxd-5minWarning</title>
    <path transform-origin="center" transform="scale(1, -1)" d="M830.5887875 724.0862050000001L860.930925 629.76059875L949.1835958333332 445.6607958333334L949.1835958333332 249.5373500000001L870.1203833333333 249.5373500000001C870.1203833333333 184.4243666666668 817.1480333333333 131.8632791666668 751.5255666666666 131.8632791666668C685.9031041666667 131.8632791666668 632.9307541666666 184.4243666666668 632.9307541666666 249.5373500000001L632.9307541666666 249.5373500000001L395.7411220833333 249.5373500000001C395.7411220833333 184.4243666666668 342.76877125 131.8632791666668 277.1463066666667 131.8632791666668C211.5238425 131.8632791666668 158.5514916666667 184.4243666666668 158.5514916666667 249.5373500000001L158.5514916666667 249.5373500000001L79.48828125 249.5373500000001L79.48828125 405.7372916666667L79.48828125 405.7372916666667L194.2501420833333 405.7106C237.4749841666667 343.8603625000001 306.16311 304.1470875 384.0426929166666 304.1470875C461.922275 304.1470875 530.6103999999999 343.8603625000001 573.8352416666667 405.7106L647.8102041666666 405.7372833333334L647.8102041666666 724.0862050000001L830.5887875 724.0862050000001zM277.1463066666667 308.3743833333334C244.3350745833333 308.3743833333334 217.8488991666667 282.0938416666668 217.8488991666667 249.5373500000001C217.8488991666667 216.9808583333335 244.3350745833333 190.7003166666667 277.1463066666667 190.7003166666667C309.9575391666667 190.7003166666667 336.4437145833334 216.9808583333335 336.4437145833334 249.5373500000001C336.4437145833334 282.0938416666668 309.9575391666667 308.3743833333334 277.1463066666667 308.3743833333334zM751.5255666666666 308.3743833333334C718.7143374999999 308.3743833333334 692.2281625 282.0938416666668 692.2281625 249.5373500000001C692.2281625 216.9808583333335 718.7143374999999 190.7003166666667 751.5255666666666 190.7003166666667C784.3367999999999 190.7003166666667 810.8229749999999 216.9808583333335 810.8229749999999 249.5373500000001C810.8229749999999 282.0938416666668 784.3367999999999 308.3743833333334 751.5255666666666 308.3743833333334zM383.47398 728.0244391666668C495.5242166666666 728.0244391666668 585.1644041666666 638.757795 585.1644041666666 527.1744916666667C585.1644041666666 415.5911833333334 495.5242166666666 326.3245416666668 383.47398 326.3245416666668C271.4237441666667 326.3245416666668 181.7835554166667 415.5911833333334 181.7835554166667 527.1744916666667C181.7835554166667 638.757795 271.4237441666667 728.0244391666668 383.47398 728.0244391666668zM383.47398 683.3911170833334C296.0747958333334 683.3911170833334 226.6036495833333 614.2094679166667 226.6036495833333 527.1744916666667C226.6036495833333 440.1395125 296.0747958333334 370.9578625000001 383.47398 370.9578625000001C470.8731625 370.9578625000001 540.3443083333333 440.1395125 540.3443083333333 527.1744916666667C540.3443083333333 614.2094679166667 470.8731625 683.3911170833334 383.47398 683.3911170833334zM463.5798083333333 655.8262583333334L463.5798083333333 613.9222354166667L360.5392908333334 613.9222354166667L353.3462354166667 553.7523583333334C358.1416295833334 557.3339166666667 363.9559579166667 560.2886541666667 370.7893945833333 562.6166708333333C377.62283125 564.9446833333334 385.1754641666667 566.1683625000001 393.4475191666666 566.2877458333332C418.6233375 566.6459041666667 438.1343083333333 559.0650541666666 451.9810083333333 543.5449666666667C465.8277083333333 528.0248791666668 472.7509541666666 506.4164708333334 472.7509541666666 478.7190833333333C472.7509541666666 453.648175 465.1683499999999 432.8157583333334 450.0029166666667 416.2212041666667C434.8374833333333 399.6266500000001 412.9887954166666 391.3295000000001 384.4562 391.3295000000001C360.35934375 391.3295000000001 339.7394579166667 397.8657458333334 322.5959233333333 410.9384333333334C305.4523891666667 424.0111208333334 297.1804579166667 442.0081791666667 297.7798825 464.9301541666667L298.139535 465.8255375L348.6707491666667 468.3326166666667C348.6707491666667 456.7522458333334 351.9675333333334 447.7089458333334 358.5612004166666 441.20245C365.1548675 434.6959500000001 373.7864475 431.4427500000001 384.4562 431.4427500000001C396.684455 431.4427500000001 405.7056554166667 435.7704041666667 411.5200708333333 444.4258333333334C417.3344875 453.0812666666667 420.24165 464.3928541666667 420.24165 478.3609291666667C420.24165 493.4034750000001 417.1246916666667 505.4612083333334 410.8906783333333 514.5344875000001C404.6566658333333 523.6077708333333 395.4256704166667 528.1443416666667 383.197415 528.1443416666667C373.1270870833333 528.1443416666667 365.4246008333334 526.2939 360.0897245833334 522.5929541666667C354.75484875 518.8920125 350.9485616666667 513.8779041666667 348.6707491666667 507.5504833333333L302.4553683333334 510.5947958333333L317.5607845833333 655.8262583333334L463.5798083333333 655.8262583333334zM810.8229708333333 582.5977958333333L711.9939625 582.5977958333333L711.9939625 445.6607958333334L888.3049208333333 445.6607958333334L810.8229708333333 582.5977958333333zM504.4882333333333 777.12109375L607.57445 690.0861154166666L578.4413916666666 656.61112375L475.355175 743.6461020833333L504.4882333333333 777.12109375zM262.459725 774.8894275L291.5927866666667 741.4144358333333L188.5065695833333 656.61112375L159.3735083333333 690.0861154166666L262.459725 774.8894275z" />
</svg>