<svg xmlns="http://www.w3.org/2000/svg" width="1000" height="1000" viewBox="0 0 1000 1000">
    <title>uxd-apps</title>
    <path transform-origin="center" transform="scale(1, -1)" d="M166.25 667.5L332.5 667.5L332.5 833.75L166.25 833.75L166.25 667.5L166.25 667.5zM415.625 168.7500000000001L581.875 168.7500000000001L581.875 335L415.625 335L415.625 168.7500000000001L415.625 168.7500000000001zM166.25 168.7500000000001L332.5 168.7500000000001L332.5 335L166.25 335L166.25 168.7500000000001L166.25 168.7500000000001zM166.25 418.125L332.5 418.125L332.5 584.375L166.25 584.375L166.25 418.125L166.25 418.125zM415.625 418.125L581.875 418.125L581.875 584.375L415.625 584.375L415.625 418.125L415.625 418.125zM665 833.75L665 667.5L831.2499999999999 667.5L831.2499999999999 833.75L665 833.75L665 833.75zM415.625 667.5L581.875 667.5L581.875 833.75L415.625 833.75L415.625 667.5L415.625 667.5zM665 418.125L831.2499999999999 418.125L831.2499999999999 584.375L665 584.375L665 418.125L665 418.125zM665 168.7500000000001L831.2499999999999 168.7500000000001L831.2499999999999 335L665 335L665 168.7500000000001L665 168.7500000000001z" />
</svg>