<svg xmlns="http://www.w3.org/2000/svg" width="1000" height="1000" viewBox="0 0 1000 1000">
    <title>uxd-album</title>
    <path transform-origin="center" transform="scale(1, -1)" d="M498.75 916.875C269.325 916.875 83.125 730.675 83.125 501.25C83.125 271.8250000000001 269.325 85.625 498.75 85.625C728.175 85.625 914.375 271.8250000000001 914.375 501.25C914.375 730.675 728.175 916.875 498.75 916.875L498.75 916.875zM498.75 314.2187500000001C395.2593749999999 314.2187500000001 311.71875 397.759375 311.71875 501.25C311.71875 604.7406250000001 395.2593749999999 688.28125 498.75 688.28125C602.240625 688.28125 685.7812499999999 604.7406250000001 685.7812499999999 501.25C685.7812499999999 397.759375 602.240625 314.2187500000001 498.75 314.2187500000001L498.75 314.2187500000001zM498.75 542.8125C475.8906249999999 542.8125 457.1875 524.109375 457.1875 501.25C457.1875 478.390625 475.8906249999999 459.6875000000001 498.75 459.6875000000001C521.609375 459.6875000000001 540.3124999999999 478.390625 540.3124999999999 501.25C540.3124999999999 524.109375 521.609375 542.8125 498.75 542.8125L498.75 542.8125z" />
</svg>