<svg xmlns="http://www.w3.org/2000/svg" width="1000" height="1000" viewBox="0 0 1000 1000">
    <title>uxd-account-balance-wallet</title>
    <path transform-origin="center" transform="scale(1, -1)" d="M872.8125 251.8750000000001L872.8125 210.3125C872.8125 164.5937500000001 835.4062499999999 127.1875 789.6875 127.1875L207.8125 127.1875C161.678125 127.1875 124.6875 164.5937500000001 124.6875 210.3125L124.6875 792.1875C124.6875 837.90625 161.678125 875.3125 207.8125 875.3125L789.6875 875.3125C835.4062499999999 875.3125 872.8125 837.90625 872.8125 792.1875L872.8125 750.625L498.75 750.625C452.615625 750.625 415.625 713.21875 415.625 667.5L415.625 335C415.625 289.28125 452.615625 251.8750000000001 498.75 251.8750000000001L872.8125 251.8750000000001L872.8125 251.8750000000001zM498.75 335L914.375 335L914.375 667.5L498.75 667.5L498.75 335L498.75 335zM665 438.90625C630.503125 438.90625 602.6562499999999 466.7531250000001 602.6562499999999 501.25C602.6562499999999 535.746875 630.503125 563.59375 665 563.59375C699.496875 563.59375 727.34375 535.746875 727.34375 501.25C727.34375 466.7531250000001 699.496875 438.90625 665 438.90625L665 438.90625z" />
</svg>