<svg xmlns="http://www.w3.org/2000/svg" width="1000" height="1000" viewBox="0 0 1000 1000">
    <title>uxd-add-to-queue</title>
    <path transform-origin="center" transform="scale(1, -1)" d="M872.8125 875.3125L124.6875 875.3125C78.553125 875.3125 41.5625 838.321875 41.5625 792.1875L41.5625 293.4375000000001C41.5625 247.7187500000001 78.553125 210.3125 124.6875 210.3125L332.5 210.3125L332.5 127.1875L665 127.1875L665 210.3125L872.8125 210.3125C918.53125 210.3125 955.521875 247.7187500000001 955.521875 293.4375000000001L955.9374999999998 792.1875C955.9374999999998 838.321875 918.53125 875.3125 872.8125 875.3125L872.8125 875.3125zM872.8125 293.4375000000001L124.6875 293.4375000000001L124.6875 792.1875L872.8125 792.1875L872.8125 293.4375000000001L872.8125 293.4375000000001zM665 584.375L665 501.25L540.3124999999999 501.25L540.3124999999999 376.5625L457.1875 376.5625L457.1875 501.25L332.5 501.25L332.5 584.375L457.1875 584.375L457.1875 709.0625L540.3124999999999 709.0625L540.3124999999999 584.375L665 584.375L665 584.375z" />
</svg>