<svg xmlns="http://www.w3.org/2000/svg" width="1000" height="1000" viewBox="0 0 1000 1000">
    <title>uxd-airline-seat-legroom-reduced</title>
    <path transform-origin="center" transform="scale(1, -1)" d="M830.003125 202C837.4843749999999 162.1 807.14375 127.1875 768.9062499999999 127.1875L581.875 127.1875L581.875 251.8750000000001L623.4375 418.125L374.0625 418.125C305.484375 418.125 249.375 474.234375 249.375 542.8125L249.375 875.3125L498.75 875.3125L498.75 625.9375L706.5624999999999 625.9375C752.2812499999999 625.9375 789.6875 588.53125 789.6875 542.8125L706.5624999999999 251.8750000000001L766.4124999999999 251.8750000000001C796.753125 251.8750000000001 824.184375 231.5093750000001 830.003125 202L830.003125 202zM207.8125 501.25L207.8125 875.3125L124.6875 875.3125L124.6875 501.25C124.6875 386.5375 217.7875 293.4375000000001 332.5 293.4375000000001L498.75 293.4375000000001L498.75 376.5625L332.5 376.5625C263.50625 376.5625 207.8125 432.25625 207.8125 501.25L207.8125 501.25z" />
</svg>