<svg xmlns="http://www.w3.org/2000/svg" width="1000" height="1000" viewBox="0 0 1000 1000">
    <title>uxd-assessment</title>
    <path transform-origin="center" transform="scale(1, -1)" d="M789.6875 875.3125L207.8125 875.3125C162.09375 875.3125 124.6875 837.90625 124.6875 792.1875L124.6875 210.3125C124.6875 164.5937500000001 162.09375 127.1875 207.8125 127.1875L789.6875 127.1875C835.4062499999999 127.1875 872.8125 164.5937500000001 872.8125 210.3125L872.8125 792.1875C872.8125 837.90625 835.4062499999999 875.3125 789.6875 875.3125L789.6875 875.3125zM374.0625 293.4375000000001L290.9375 293.4375000000001L290.9375 584.375L374.0625 584.375L374.0625 293.4375000000001L374.0625 293.4375000000001zM540.3124999999999 293.4375000000001L457.1875 293.4375000000001L457.1875 709.0625L540.3124999999999 709.0625L540.3124999999999 293.4375000000001L540.3124999999999 293.4375000000001zM706.5624999999999 293.4375000000001L623.4375 293.4375000000001L623.4375 459.6875000000001L706.5624999999999 459.6875000000001L706.5624999999999 293.4375000000001L706.5624999999999 293.4375000000001z" />
</svg>