<svg xmlns="http://www.w3.org/2000/svg" width="1000" height="1000" viewBox="0 0 1000 1000">
    <title>uxd-Airport-shuttle</title>
    <path transform-origin="center" transform="scale(1, -1)" d="M706.5624999999999 792.1875L124.6875 792.1875C78.96875 792.1875 41.5625 755.196875 41.5625 709.0625L41.5625 335L124.6875 335C124.6875 266.421875 180.38125 210.3125 249.375 210.3125C318.36875 210.3125 374.0625 266.421875 374.0625 335L602.6562499999999 335C602.6562499999999 266.421875 658.3499999999999 210.3125 727.34375 210.3125C796.3375 210.3125 852.03125 266.421875 852.03125 335L955.9374999999998 335L955.9374999999998 542.8125L706.5624999999999 792.1875L706.5624999999999 792.1875zM124.6875 542.8125L124.6875 709.0625L290.9375 709.0625L290.9375 542.8125L124.6875 542.8125L124.6875 542.8125zM249.375 272.65625C214.878125 272.65625 187.03125 300.503125 187.03125 335C187.03125 369.4968750000001 214.878125 397.3437500000001 249.375 397.3437500000001C283.871875 397.3437500000001 311.71875 369.4968750000001 311.71875 335C311.71875 300.503125 283.871875 272.65625 249.375 272.65625L249.375 272.65625zM540.3124999999999 542.8125L374.0625 542.8125L374.0625 709.0625L540.3124999999999 709.0625L540.3124999999999 542.8125L540.3124999999999 542.8125zM727.34375 272.65625C692.846875 272.65625 665 300.503125 665 335C665 369.4968750000001 692.846875 397.3437500000001 727.34375 397.3437500000001C761.840625 397.3437500000001 789.6875 369.4968750000001 789.6875 335C789.6875 300.503125 761.840625 272.65625 727.34375 272.65625L727.34375 272.65625zM623.4375 542.8125L623.4375 709.0625L665 709.0625L831.2499999999999 542.8125L623.4375 542.8125L623.4375 542.8125z" />
</svg>