<svg xmlns="http://www.w3.org/2000/svg" width="1000" height="1000" viewBox="0 0 1000 1000">
    <title>uxd-alarm-off</title>
    <path transform-origin="center" transform="scale(1, -1)" d="M498.75 750.625C659.596875 750.625 789.6875 620.534375 789.6875 459.6875000000001C789.6875 424.775 783.0374999999999 391.109375 771.815625 359.9375000000001L834.9906249999999 296.7625000000001C859.0968749999998 346.2218750000001 872.8125 401.084375 872.8125 459.6875000000001C872.8125 666.253125 705.315625 833.75 498.75 833.75C440.146875 833.75 385.284375 820.034375 335.825 795.928125L399 732.753125C430.171875 743.975 463.8375 750.625 498.75 750.625L498.75 750.625zM914.375 762.2625L723.1875 922.69375L669.5718749999999 859.103125L860.759375 698.671875L914.375 762.2625L914.375 762.2625zM121.3625 904.821875L68.578125 851.621875L123.85625 796.34375L77.721875 757.690625L136.740625 698.671875L182.875 737.740625L216.125 704.490625C159.184375 638.8218750000001 124.6875 553.203125 124.6875 459.6875000000001C124.6875 253.1218750000001 291.76875 85.625 498.75 85.625C592.265625 85.625 677.8843749999999 120.1218750000001 743.553125 177.0625000000001L834.9906249999999 85.625L887.775 138.4093750000001L161.678125 864.090625L121.3625 904.821875L121.3625 904.821875zM684.534375 235.6656250000001C634.24375 194.103125 569.4062499999999 168.7500000000001 498.75 168.7500000000001C337.903125 168.7500000000001 207.8125 298.8406250000001 207.8125 459.6875000000001C207.8125 530.34375 233.165625 595.1812500000001 274.728125 645.471875L684.534375 235.6656250000001L684.534375 235.6656250000001zM333.33125 863.675L274.3125 922.69375L238.56875 893.184375L297.5875 834.165625L333.33125 863.675L333.33125 863.675z" />
</svg>