<svg xmlns="http://www.w3.org/2000/svg" width="1000" height="1000" viewBox="0 0 1000 1000">
    <title>uxd-add-location</title>
    <path transform-origin="center" transform="scale(1, -1)" d="M500 916.6666666666666C339.1666666666667 916.6666666666666 208.3333333333333 785.8333333333334 208.3333333333333 625C208.3333333333333 406.25 500 83.3333333333334 500 83.3333333333334C500 83.3333333333334 791.6666666666666 406.25 791.6666666666666 625C791.6666666666666 785.8333333333334 660.8333333333333 916.6666666666666 500 916.6666666666666L500 916.6666666666666zM666.6666666666666 583.3333333333334L541.6666666666666 583.3333333333334L541.6666666666666 458.3333333333334L458.3333333333333 458.3333333333334L458.3333333333333 583.3333333333334L333.3333333333333 583.3333333333334L333.3333333333333 666.6666666666667L458.3333333333333 666.6666666666667L458.3333333333333 791.6666666666667L541.6666666666666 791.6666666666667L541.6666666666666 666.6666666666667L666.6666666666666 666.6666666666667L666.6666666666666 583.3333333333334L666.6666666666666 583.3333333333334z" />
</svg>