<svg xmlns="http://www.w3.org/2000/svg" width="1000" height="1000" viewBox="0 0 1000 1000">
    <title>uxd-account-box</title>
    <path transform-origin="center" transform="scale(1, -1)" d="M124.6875 792.1875L124.6875 210.3125C124.6875 164.5937500000001 161.678125 127.1875 207.8125 127.1875L789.6875 127.1875C835.4062499999999 127.1875 872.8125 164.5937500000001 872.8125 210.3125L872.8125 792.1875C872.8125 837.90625 835.4062499999999 875.3125 789.6875 875.3125L207.8125 875.3125C161.678125 875.3125 124.6875 837.90625 124.6875 792.1875L124.6875 792.1875zM623.4375 625.9375C623.4375 556.94375 567.74375 501.25 498.75 501.25C429.75625 501.25 374.0625 556.94375 374.0625 625.9375C374.0625 694.9312500000001 429.75625 750.625 498.75 750.625C567.74375 750.625 623.4375 694.9312500000001 623.4375 625.9375L623.4375 625.9375zM249.375 293.4375000000001C249.375 376.5625 415.625 422.28125 498.75 422.28125C581.875 422.28125 748.1249999999999 376.5625 748.1249999999999 293.4375000000001L748.1249999999999 251.8750000000001L249.375 251.8750000000001L249.375 293.4375000000001L249.375 293.4375000000001z" />
</svg>