<svg xmlns="http://www.w3.org/2000/svg" width="1000" height="1000" viewBox="0 0 1000 1000">
    <title>uxd-airline-seat-legroom-normal</title>
    <path transform-origin="center" transform="scale(1, -1)" d="M207.8125 501.25L207.8125 875.3125L124.6875 875.3125L124.6875 501.25C124.6875 386.5375 217.7875 293.4375000000001 332.5 293.4375000000001L581.875 293.4375000000001L581.875 376.5625L332.5 376.5625C263.50625 376.5625 207.8125 432.25625 207.8125 501.25L207.8125 501.25zM852.03125 251.8750000000001L789.6875 251.8750000000001L789.6875 542.8125C789.6875 588.53125 752.2812499999999 625.9375 706.5624999999999 625.9375L498.75 625.9375L498.75 875.3125L249.375 875.3125L249.375 542.8125C249.375 474.234375 305.484375 418.125 374.0625 418.125L665 418.125L665 127.1875L852.03125 127.1875C886.5281249999999 127.1875 914.375 155.0343750000001 914.375 189.53125C914.375 224.0281250000001 886.5281249999999 251.8750000000001 852.03125 251.8750000000001L852.03125 251.8750000000001z" />
</svg>