<svg xmlns="http://www.w3.org/2000/svg" width="1000" height="1000" viewBox="0 0 1000 1000">
    <title>uxd-add-alert</title>
    <path transform-origin="center" transform="scale(1, -1)" d="M416.040625 126.7718750000001C416.040625 81.053125 453.0312499999999 44.0625000000001 498.75 44.0625000000001C544.46875 44.0625000000001 581.4593749999999 81.053125 581.4593749999999 126.7718750000001L416.040625 126.7718750000001L416.040625 126.7718750000001zM784.6999999999999 300.9187500000001L784.6999999999999 542.8125C784.6999999999999 677.890625 691.184375 790.940625 564.834375 820.865625L564.834375 850.790625C564.834375 887.365625 535.3249999999999 916.875 498.75 916.875C462.175 916.875 432.665625 887.365625 432.665625 850.790625L432.665625 820.865625C306.315625 790.940625 212.8 677.890625 212.8 542.8125L212.8 300.9187500000001L124.6875 212.8062500000001L124.6875 168.7500000000001L872.8125 168.7500000000001L872.8125 212.8062500000001L784.6999999999999 300.9187500000001L784.6999999999999 300.9187500000001zM665 459.271875L540.3124999999999 459.271875L540.3124999999999 334.584375L457.1875 334.584375L457.1875 459.271875L332.5 459.271875L332.5 542.8125L457.1875 542.8125L457.1875 667.5L540.3124999999999 667.5L540.3124999999999 542.8125L665 542.8125L665 459.271875L665 459.271875z" />
</svg>