<svg xmlns="http://www.w3.org/2000/svg" width="1000" height="1000" viewBox="0 0 1000 1000">
    <title>uxd-account-balance</title>
    <path transform-origin="center" transform="scale(1, -1)" d="M166.25 584.375L166.25 293.4375000000001L290.9375 293.4375000000001L290.9375 584.375L166.25 584.375L166.25 584.375zM415.625 584.375L415.625 293.4375000000001L540.3124999999999 293.4375000000001L540.3124999999999 584.375L415.625 584.375L415.625 584.375zM83.125 85.625L872.8125 85.625L872.8125 210.3125L83.125 210.3125L83.125 85.625L83.125 85.625zM665 584.375L665 293.4375000000001L789.6875 293.4375000000001L789.6875 584.375L665 584.375L665 584.375zM477.9687499999999 958.4375L83.125 750.625L83.125 667.5L872.8125 667.5L872.8125 750.625L477.9687499999999 958.4375L477.9687499999999 958.4375z" />
</svg>