<svg xmlns="http://www.w3.org/2000/svg" width="1000" height="1000" viewBox="0 0 1000 1000">
    <title>uxd-airline-seat-flat</title>
    <path transform-origin="center" transform="scale(1, -1)" d="M914.375 542.8125L914.375 459.6875000000001L374.0625 459.6875000000001L374.0625 709.0625L748.1249999999999 709.0625C839.978125 709.0625 914.375 634.6656250000001 914.375 542.8125L914.375 542.8125zM83.125 418.125L83.125 335L332.5 335L332.5 251.8750000000001L665 251.8750000000001L665 335L914.375 335L914.375 418.125L83.125 418.125L83.125 418.125zM296.75625 497.09375C344.96875 546.553125 344.1375 625.10625 295.09375 673.31875C245.634375 721.53125 167.08125 720.7 118.86875 671.65625C70.65625 622.196875 71.4875 543.64375 120.53125 495.43125C169.990625 447.21875 248.54375 448.0500000000001 296.75625 497.09375L296.75625 497.09375z" />
</svg>