<svg xmlns="http://www.w3.org/2000/svg" width="1000" height="1000" viewBox="0 0 1000 1000">
    <title>uxd-add-circle-outline</title>
    <path transform-origin="center" transform="scale(1, -1)" d="M540.3124999999999 709.0625L457.1875 709.0625L457.1875 542.8125L290.9375 542.8125L290.9375 459.6875000000001L457.1875 459.6875000000001L457.1875 293.4375000000001L540.3124999999999 293.4375000000001L540.3124999999999 459.6875000000001L706.5624999999999 459.6875000000001L706.5624999999999 542.8125L540.3124999999999 542.8125L540.3124999999999 709.0625L540.3124999999999 709.0625zM498.75 916.875C269.325 916.875 83.125 730.675 83.125 501.25C83.125 271.8250000000001 269.325 85.625 498.75 85.625C728.175 85.625 914.375 271.8250000000001 914.375 501.25C914.375 730.675 728.175 916.875 498.75 916.875L498.75 916.875zM498.75 168.7500000000001C315.459375 168.7500000000001 166.25 317.9593750000002 166.25 501.25C166.25 684.5406250000001 315.459375 833.75 498.75 833.75C682.0406249999999 833.75 831.2499999999999 684.5406250000001 831.2499999999999 501.25C831.2499999999999 317.9593750000002 682.0406249999999 168.7500000000001 498.75 168.7500000000001L498.75 168.7500000000001z" />
</svg>