<svg xmlns="http://www.w3.org/2000/svg" width="1000" height="1000" viewBox="0 0 1000 1000">
    <title>uxd-adjust</title>
    <path transform-origin="center" transform="scale(1, -1)" d="M498.75 916.875C269.740625 916.875 83.125 730.2593750000001 83.125 501.25C83.125 272.240625 269.740625 85.625 498.75 85.625C727.759375 85.625 914.375 272.240625 914.375 501.25C914.375 730.2593750000001 727.759375 916.875 498.75 916.875L498.75 916.875zM498.75 168.7500000000001C315.459375 168.7500000000001 166.25 317.9593750000002 166.25 501.25C166.25 684.5406250000001 315.459375 833.75 498.75 833.75C682.0406249999999 833.75 831.2499999999999 684.5406250000001 831.2499999999999 501.25C831.2499999999999 317.9593750000002 682.0406249999999 168.7500000000001 498.75 168.7500000000001L498.75 168.7500000000001zM623.4375 501.25C623.4375 432.25625 567.74375 376.5625 498.75 376.5625C429.75625 376.5625 374.0625 432.25625 374.0625 501.25C374.0625 570.2437500000001 429.75625 625.9375 498.75 625.9375C567.74375 625.9375 623.4375 570.2437500000001 623.4375 501.25L623.4375 501.25z" />
</svg>