<svg xmlns="http://www.w3.org/2000/svg" width="1000" height="1000" viewBox="0 0 1000 1000">
    <title>uxd-accessible</title>
    <path transform-origin="center" transform="scale(1, -1)" d="M789.6875 459.6875000000001L789.6875 542.8125C725.68125 541.98125 661.259375 573.984375 620.5281249999999 618.871875L566.9125 678.3062500000001C559.846875 686.203125 551.11875 692.4375 541.5593749999999 697.0093750000001C541.14375 697.0093750000001 541.14375 697.425 540.728125 697.425L540.3124999999999 697.425C525.765625 705.7375 509.1406249999999 709.89375 490.8531249999999 708.23125C447.2125 704.490625 415.625 665.8375000000001 415.625 622.196875L415.625 376.5625C415.625 330.84375 453.0312499999999 293.4375000000001 498.75 293.4375000000001L706.5624999999999 293.4375000000001L706.5624999999999 85.625L789.6875 85.625L789.6875 314.2187500000001C789.6875 359.9375000000001 752.2812499999999 397.3437500000001 706.5624999999999 397.3437500000001L581.875 397.3437500000001L581.875 540.734375C635.490625 496.2625 716.953125 460.103125 789.6875 459.6875000000001L789.6875 459.6875000000001zM533.2468749999999 251.8750000000001C516.20625 203.6625 470.071875 168.7500000000001 415.625 168.7500000000001C346.63125 168.7500000000001 290.9375 224.44375 290.9375 293.4375000000001C290.9375 347.8843750000001 325.85 393.603125 374.0625 411.0593750000001L374.0625 497.09375C279.3 477.975 207.8125 394.0187500000001 207.8125 293.4375000000001C207.8125 178.725 300.9125 85.625 415.625 85.625C516.20625 85.625 600.1625 157.1125000000001 619.28125 251.8750000000001L533.2468749999999 251.8750000000001L533.2468749999999 251.8750000000001zM498.75 750.625C544.6586708333333 750.625 581.875 787.84133 581.875 833.75C581.875 879.65867 544.6586708333333 916.875 498.75 916.875C452.8413291666666 916.875 415.625 879.65867 415.625 833.75C415.625 787.84133 452.8413291666666 750.625 498.75 750.625z" />
</svg>