<svg xmlns="http://www.w3.org/2000/svg" width="1000" height="1000" viewBox="0 0 1000 1000">
    <title>uxd-alarm</title>
    <path transform-origin="center" transform="scale(1, -1)" d="M914.375 762.2625L723.1875 922.69375L669.5718749999999 859.103125L860.759375 698.671875L914.375 762.2625L914.375 762.2625zM327.5125 859.103125L274.3125 922.69375L83.125 762.678125L136.740625 699.0875000000001L327.5125 859.103125L327.5125 859.103125zM519.53125 667.5L457.1875 667.5L457.1875 418.125L654.609375 299.6718750000001L685.7812499999999 350.7937500000001L519.53125 449.296875L519.53125 667.5L519.53125 667.5zM498.75 833.75C292.184375 833.75 124.6875 666.253125 124.6875 459.6875000000001C124.6875 253.1218750000001 291.76875 85.625 498.75 85.625C705.315625 85.625 872.8125 253.1218750000001 872.8125 459.6875000000001C872.8125 666.253125 705.315625 833.75 498.75 833.75L498.75 833.75zM498.75 168.7500000000001C337.903125 168.7500000000001 207.8125 298.8406250000001 207.8125 459.6875000000001C207.8125 620.534375 337.903125 750.625 498.75 750.625C659.596875 750.625 789.6875 620.534375 789.6875 459.6875000000001C789.6875 298.8406250000001 659.596875 168.7500000000001 498.75 168.7500000000001L498.75 168.7500000000001z" />
</svg>