<svg xmlns="http://www.w3.org/2000/svg" width="1000" height="1000" viewBox="0 0 1000 1000">
    <title>uxd-assigned-1-4-alt</title>
    <path transform-origin="center" transform="scale(1, -1)" d="M249.375 750.625C313.6721875 750.625 365.75 802.7028125 365.75 867C365.75 931.2971875 313.6721875 983.375 249.375 983.375C185.0778125 983.375 133 931.2971875 133 867C133 802.7028125 185.0778125 750.625 249.375 750.625L249.375 750.625zM249.375 222.78125C327.0553125 222.78125 482.1249999999999 183.795625 482.1249999999999 106.4062500000001L482.1249999999999 106.4062500000001L482.1249999999999 19.125L16.625 19.125L16.625 106.4062500000001C16.625 183.795625 171.6946875 222.78125 249.375 222.78125zM748.1249999999999 222.78125C825.8053124999999 222.78125 980.875 183.795625 980.875 106.4062500000001L980.875 106.4062500000001L980.875 19.125L515.375 19.125L515.375 106.4062500000001C515.375 183.795625 670.4446875 222.78125 748.1249999999999 222.78125zM249.375 167.503125C162.9665625 167.503125 71.903125 125.0262500000001 71.903125 106.4062500000001L71.903125 106.4062500000001L71.903125 74.4031250000002L426.846875 74.4031250000002L426.846875 106.4062500000001C426.846875 125.0262500000001 335.7834375 167.503125 249.375 167.503125zM748.1249999999999 167.503125C661.7165625 167.503125 570.6531249999999 125.0262500000001 570.6531249999999 106.4062500000001L570.6531249999999 106.4062500000001L570.6531249999999 74.4031250000002L925.5968749999998 74.4031250000002L925.5968749999998 106.4062500000001C925.5968749999998 125.0262500000001 834.5334375 167.503125 748.1249999999999 167.503125zM249.375 484.625C313.6721875 484.625 365.75 432.5471875000001 365.75 368.25C365.75 303.9528125 313.6721875 251.8750000000001 249.375 251.8750000000001C185.0778125 251.8750000000001 133 303.9528125 133 368.25C133 432.5471875000001 185.0778125 484.625 249.375 484.625zM748.1249999999999 484.625C812.4221875 484.625 864.5 432.5471875000001 864.5 368.25C864.5 303.9528125 812.4221875 251.8750000000001 748.1249999999999 251.8750000000001C683.8278124999999 251.8750000000001 631.75 303.9528125 631.75 368.25C631.75 432.5471875000001 683.8278124999999 484.625 748.1249999999999 484.625zM249.375 429.3468750000001C215.62625 429.3468750000001 188.278125 401.9987500000001 188.278125 368.25C188.278125 334.5012500000001 215.62625 307.1531250000001 249.375 307.1531250000001C283.12375 307.1531250000001 310.471875 334.5012500000001 310.471875 368.25C310.471875 401.9987500000001 283.12375 429.3468750000001 249.375 429.3468750000001zM748.1249999999999 429.3468750000001C714.3762499999999 429.3468750000001 687.0281249999999 401.9987500000001 687.0281249999999 368.25C687.0281249999999 334.5012500000001 714.3762499999999 307.1531250000001 748.1249999999999 307.1531250000001C781.87375 307.1531250000001 809.221875 334.5012500000001 809.221875 368.25C809.221875 401.9987500000001 781.87375 429.3468750000001 748.1249999999999 429.3468750000001zM249.375 692.4375C327.0553125 692.4375 482.1249999999999 653.451875 482.1249999999999 576.0625L482.1249999999999 576.0625L482.1249999999999 517.875L16.625 517.875L16.625 576.0625C16.625 653.451875 171.6946875 692.4375 249.375 692.4375zM748.1249999999999 721.53125C825.8053124999999 721.53125 980.875 682.545625 980.875 605.15625L980.875 605.15625L980.875 517.875L515.375 517.875L515.375 605.15625C515.375 682.545625 670.4446875 721.53125 748.1249999999999 721.53125zM748.1249999999999 666.253125C661.7165625 666.253125 570.6531249999999 623.77625 570.6531249999999 605.15625L570.6531249999999 605.15625L570.6531249999999 573.153125L925.5968749999998 573.153125L925.5968749999998 605.15625C925.5968749999998 623.77625 834.5334375 666.253125 748.1249999999999 666.253125zM748.1249999999999 983.375C812.4221875 983.375 864.5 931.2971875 864.5 867C864.5 802.7028125 812.4221875 750.625 748.1249999999999 750.625C683.8278124999999 750.625 631.75 802.7028125 631.75 867C631.75 931.2971875 683.8278124999999 983.375 748.1249999999999 983.375zM748.1249999999999 928.096875C714.3762499999999 928.096875 687.0281249999999 900.74875 687.0281249999999 867C687.0281249999999 833.25125 714.3762499999999 805.903125 748.1249999999999 805.903125C781.87375 805.903125 809.221875 833.25125 809.221875 867C809.221875 900.74875 781.87375 928.096875 748.1249999999999 928.096875z" />
</svg>